<svg xmlns="http://www.w3.org/2000/svg" width="69" height="57" viewBox="0 0 69 57">
    <g fill="none" fill-rule="evenodd">
        <path fill="#FFF" d="M40.967 56h-17.66c-4.517 0-8.213-3.64-8.213-8.088V9.088C15.094 4.64 18.79 1 23.308 1h17.66c4.518 0 8.214 3.64 8.214 8.088v38.824c0 4.449-3.696 8.088-8.215 8.088"/>
        <path stroke="#0F7FFF" stroke-width="1.259" d="M40.967 56h-17.66c-4.517 0-8.213-3.64-8.213-8.088V9.088C15.094 4.64 18.79 1 23.308 1h17.66c4.518 0 8.214 3.64 8.214 8.088v38.824c0 4.449-3.696 8.088-8.215 8.088z"/>
        <path fill="#DDE6F2" d="M34.912 50.42a2.384 2.384 0 0 1-2.378 2.392 2.384 2.384 0 0 1-2.378-2.392 2.384 2.384 0 0 1 2.378-2.391 2.384 2.384 0 0 1 2.378 2.391M19.057 45.638h26.16V6.58h-26.16z"/>
        <path fill="#0F7FFF" d="M56.316 28.899c-6.556 0-11.89-5.185-11.89-11.558S49.76 5.783 56.315 5.783c6.557 0 11.891 5.185 11.891 11.558s-5.334 11.558-11.89 11.558"/>
        <path fill="#FFF" d="M56.316 4.986c-6.994 0-12.684 5.72-12.684 12.753s5.69 12.754 12.684 12.754C63.311 30.493 69 24.772 69 17.739c0-7.033-5.69-12.753-12.684-12.753m0 2.04c5.884 0 10.655 4.796 10.655 10.713 0 5.917-4.77 10.713-10.655 10.713-5.884 0-10.654-4.796-10.654-10.713 0-5.917 4.77-10.713 10.654-10.713"/>
        <path fill="#FFF" d="M59.448 15.431c-.802-.598-2.017-1.046-2.935-1.046h-.164c-.74 0-.985.282-.985.581v.033c0 .398.41.598 1.575.847 2.609.714 4.134 1.578 4.134 3.72v.066c0 1.993-1.427 3.288-3.543 3.57v1.711h-1.821v-1.694c-1.492-.166-3-.714-4.15-1.578l1.493-2.49c1.312.914 2.575 1.311 3.592 1.311h.164c.77 0 1.066-.248 1.066-.597v-.033c0-.399-.426-.582-1.672-.847-2.56-.715-4.085-1.595-4.085-3.687v-.067c0-1.942 1.296-3.337 3.625-3.587v-1.079h1.836v1.097a7.372 7.372 0 0 1 3.314 1.262l-1.444 2.507zM20.663 35.371a2.843 2.843 0 0 0 .911-2.095c0-1.604-1.195-2.859-2.656-2.859H12.83c.116-.65.544-3.024 1.028-5.443.597-2.991.297-4.63-1.626-5.108-1.923-.479-2.01 1.116-3.668 4.516-2.321 4.434-4.794 5.825-6.105 6.261L0 30.641v14.965s.442 2.433 2.82 2.433H17.6l.345-.002c1.19-.009 2.157-1.052 2.149-2.318l-.007-.878c1.062-.365 1.835-1.417 1.835-2.65 0-.797-.27-1.459-.709-1.957a2.831 2.831 0 0 0 1.068-2.228c0-1.217-.669-2.208-1.618-2.635z"/>
        <path fill="#00D1FF" d="M20.125 38.272v-.058c0-.952-.561-1.774-1.358-2.127a2.346 2.346 0 0 0 .765-1.738v-.058c0-1.272-1.002-2.312-2.228-2.312h-5.106c.097-.539.457-2.508.862-4.515.501-2.48.25-5.04-1.363-5.436-1.613-.397-1.686 2.126-3.076 4.946-1.948 3.677-4.022 4.83-5.121 5.192l-2.063-.002v12.41s.371 2.018 2.365 2.018h12.396c.006 0 .012-.003.018-.004l.272.002c.998-.007 1.81-.872 1.802-1.922l-.005-.728c.89-.303 1.539-1.175 1.539-2.198v-.058a2.35 2.35 0 0 0-.595-1.565 2.338 2.338 0 0 0 .896-1.847"/>
    </g>
</svg>
