<svg xmlns="http://www.w3.org/2000/svg" xmlns:xlink="http://www.w3.org/1999/xlink" width="233" height="130" viewBox="0 0 233 130">
    <defs>
        <path id="a" d="M0 129.748h232.7V0H0z"/>
    </defs>
    <g fill="none" fill-rule="evenodd">
        <path fill="#FFF" d="M73.648 92.456c-6.905 0-12.522-5.644-12.522-12.582 0-6.937 5.617-12.581 12.522-12.581 6.904 0 12.521 5.644 12.521 12.581 0 6.938-5.617 12.582-12.521 12.582z"/>
        <path fill="#DDE6F2" d="M73.648 66.39c-7.4 0-13.42 6.05-13.42 13.484 0 7.436 6.02 13.485 13.42 13.485s13.42-6.05 13.42-13.485-6.02-13.484-13.42-13.484m0 1.806c6.419 0 11.623 5.228 11.623 11.678 0 6.45-5.204 11.68-11.623 11.68-6.42 0-11.623-5.23-11.623-11.68 0-6.45 5.204-11.678 11.623-11.678"/>
        <path fill="#FFBC00" d="M82.958 79.874c0 5.166-4.169 9.355-9.31 9.355-5.142 0-9.31-4.189-9.31-9.355s4.168-9.355 9.31-9.355c5.141 0 9.31 4.189 9.31 9.355"/>
        <path fill="#FFF" d="M68.079 79.913v-.037c0-2.972 2.26-5.419 5.43-5.419 1.566 0 2.667.428 3.536 1.165.193.157.464.506.464 1.01 0 .739-.6 1.32-1.333 1.32-.387 0-.677-.155-.852-.29-.52-.409-1.062-.661-1.834-.661-1.47 0-2.513 1.3-2.513 2.834v.04c0 1.592 1.024 2.874 2.628 2.874.774 0 1.372-.272 1.932-.719.156-.117.445-.272.793-.272.695 0 1.237.563 1.237 1.262 0 .389-.175.7-.425.932-.87.797-1.972 1.34-3.673 1.34-3.11 0-5.39-2.408-5.39-5.38M44.897 87.619c-6.904 0-12.521-5.644-12.521-12.581 0-6.938 5.617-12.583 12.521-12.583 6.904 0 12.522 5.645 12.522 12.583 0 6.937-5.618 12.58-12.522 12.58"/>
        <path fill="#DDE6F2" d="M44.897 61.553c-7.4 0-13.42 6.049-13.42 13.484 0 7.436 6.02 13.485 13.42 13.485s13.42-6.05 13.42-13.485-6.02-13.484-13.42-13.484m0 1.805c6.42 0 11.623 5.23 11.623 11.68 0 6.45-5.204 11.678-11.623 11.678-6.42 0-11.623-5.229-11.623-11.679s5.204-11.679 11.623-11.679"/>
        <path fill="#22E5FF" d="M54.207 75.038c0 5.166-4.168 9.354-9.31 9.354-5.141 0-9.31-4.188-9.31-9.354 0-5.167 4.169-9.356 9.31-9.356 5.142 0 9.31 4.189 9.31 9.356"/>
        <path fill="#FFF" d="M16.146 82.224c-6.904 0-12.521-5.644-12.521-12.581 0-6.938 5.617-12.582 12.521-12.582 6.905 0 12.522 5.644 12.522 12.582 0 6.937-5.617 12.581-12.522 12.581"/>
        <path fill="#DDE6F2" d="M16.146 56.158c-7.4 0-13.42 6.05-13.42 13.484 0 7.436 6.02 13.485 13.42 13.485s13.42-6.049 13.42-13.485c0-7.434-6.02-13.484-13.42-13.484m0 1.806c6.42 0 11.624 5.229 11.624 11.678 0 6.45-5.204 11.68-11.624 11.68-6.419 0-11.623-5.23-11.623-11.68 0-6.45 5.204-11.678 11.623-11.678"/>
        <path fill="#FFBC00" d="M25.456 69.643c0 5.166-4.168 9.354-9.31 9.354-5.141 0-9.31-4.188-9.31-9.354 0-5.167 4.169-9.355 9.31-9.355 5.142 0 9.31 4.188 9.31 9.355"/>
        <path fill="#FFF" d="M10.577 69.681v-.037c0-2.971 2.261-5.418 5.43-5.418 1.566 0 2.668.428 3.536 1.164a1.322 1.322 0 0 1-.869 2.33c-.386 0-.676-.154-.85-.29-.521-.408-1.063-.661-1.836-.661-1.469 0-2.512 1.301-2.512 2.835v.04c0 1.591 1.024 2.874 2.627 2.874.775 0 1.373-.272 1.933-.72.155-.117.445-.272.793-.272.695 0 1.237.563 1.237 1.262 0 .39-.175.7-.426.933-.87.797-1.97 1.34-3.672 1.34-3.11 0-5.39-2.408-5.39-5.38"/>
        <mask id="b" fill="#fff">
            <use xlink:href="#a"/>
        </mask>
        <path fill="#FFF" d="M58.999 128.846h3.594V94.54h-3.594z" mask="url(#b)"/>
        <path stroke="#DDE6F2" stroke-linejoin="round" stroke-width="1.8" d="M58.999 128.846h3.594V94.54h-3.594z" mask="url(#b)"/>
        <path fill="#FFF" d="M34.74 128.846h3.594V88.522H34.74z" mask="url(#b)"/>
        <path stroke="#DDE6F2" stroke-linejoin="round" stroke-width="1.8" d="M34.74 128.846h3.594V88.522H34.74z" mask="url(#b)"/>
        <path fill="#FFF" d="M10.781 128.796h3.594V82.454h-3.594z" mask="url(#b)"/>
        <path stroke="#DDE6F2" stroke-linejoin="round" stroke-width="1.8" d="M10.482 128.846h3.594V82.503h-3.594z" mask="url(#b)"/>
        <path fill="#FFF" d="M.898 83.105l73.075 13.843v-4.213L.898 78.892z" mask="url(#b)"/>
        <path stroke="#DDE6F2" stroke-linejoin="round" stroke-width="1.8" d="M.898 83.105l73.075 13.843v-4.213L.898 78.892z" mask="url(#b)"/>
        <path stroke="#DDE6F2" stroke-linecap="round" stroke-linejoin="round" stroke-width="1.8" d="M1.497 128.846h230.305" mask="url(#b)"/>
        <path fill="#FFF" d="M126.592 46.392h-25.606a3.675 3.675 0 0 0-3.666 3.683v2.879h32.938v-2.879a3.675 3.675 0 0 0-3.666-3.683" mask="url(#b)"/>
        <path stroke="#398EFF" stroke-linejoin="round" stroke-width="1.8" d="M126.592 46.392h-25.606a3.675 3.675 0 0 0-3.666 3.683v2.879h32.938v-2.879a3.675 3.675 0 0 0-3.666-3.683z" mask="url(#b)"/>
        <path fill="#FFF" d="M212.692 103.267c-6.904 0-12.522-5.644-12.522-12.581 0-6.938 5.618-12.582 12.522-12.582s12.521 5.644 12.521 12.582c0 6.937-5.617 12.58-12.521 12.58" mask="url(#b)"/>
        <path fill="#DDE6F2" d="M212.692 77.201c-7.4 0-13.42 6.05-13.42 13.484 0 7.436 6.02 13.485 13.42 13.485s13.42-6.05 13.42-13.485-6.02-13.484-13.42-13.484m0 1.806c6.42 0 11.623 5.228 11.623 11.678 0 6.45-5.204 11.68-11.623 11.68-6.42 0-11.623-5.23-11.623-11.68 0-6.45 5.204-11.678 11.623-11.678" mask="url(#b)"/>
        <path fill="#00D1FF" d="M208.493 93.157v-6.69h6.239V81.57a9.26 9.26 0 0 0-2.04-.229c-5.135 0-9.298 4.183-9.298 9.344a9.344 9.344 0 0 0 5.099 8.334v-5.863zM216.891 82.35v12.555h-6.239V99.8a9.296 9.296 0 0 0 2.04.228c5.135 0 9.298-4.182 9.298-9.342a9.345 9.345 0 0 0-5.099-8.336" mask="url(#b)"/>
        <path fill="#00D1FF" d="M210.652 92.735h4.08v-4.1h-4.08z" mask="url(#b)"/>
        <path fill="#FFF" d="M183.859 103.267c-6.905 0-12.522-5.644-12.522-12.581 0-6.938 5.617-12.582 12.522-12.582 6.904 0 12.521 5.644 12.521 12.582 0 6.937-5.617 12.58-12.521 12.58" mask="url(#b)"/>
        <path fill="#DDE6F2" d="M183.859 77.201c-7.4 0-13.42 6.05-13.42 13.484 0 7.436 6.02 13.485 13.42 13.485s13.42-6.05 13.42-13.485-6.02-13.484-13.42-13.484m0 1.806c6.419 0 11.623 5.228 11.623 11.678 0 6.45-5.204 11.68-11.623 11.68-6.42 0-11.623-5.23-11.623-11.68 0-6.45 5.203-11.678 11.623-11.678" mask="url(#b)"/>
        <path fill="#00D1FF" d="M179.66 93.157v-6.69h6.238V81.57a9.264 9.264 0 0 0-2.04-.229c-5.135 0-9.298 4.183-9.298 9.344a9.344 9.344 0 0 0 5.1 8.334v-5.863zM188.058 82.35v12.555h-6.24V99.8a9.296 9.296 0 0 0 2.04.228c5.135 0 9.299-4.182 9.299-9.342a9.345 9.345 0 0 0-5.1-8.336" mask="url(#b)"/>
        <path fill="#00D1FF" d="M181.82 92.735h4.079v-4.1h-4.08z" mask="url(#b)"/>
        <path fill="#FFF" d="M155.025 103.267c-6.904 0-12.522-5.644-12.522-12.581 0-6.938 5.618-12.582 12.522-12.582s12.521 5.644 12.521 12.582c0 6.937-5.617 12.58-12.521 12.58" mask="url(#b)"/>
        <path fill="#DDE6F2" d="M155.025 77.201c-7.4 0-13.42 6.05-13.42 13.484 0 7.436 6.02 13.485 13.42 13.485s13.42-6.05 13.42-13.485-6.02-13.484-13.42-13.484m0 1.806c6.42 0 11.623 5.228 11.623 11.678 0 6.45-5.204 11.68-11.623 11.68-6.42 0-11.623-5.23-11.623-11.68 0-6.45 5.204-11.678 11.623-11.678" mask="url(#b)"/>
        <path fill="#00D1FF" d="M150.826 93.157v-6.69h6.239V81.57a9.26 9.26 0 0 0-2.04-.229c-5.135 0-9.298 4.183-9.298 9.344a9.344 9.344 0 0 0 5.099 8.334v-5.863zM159.224 82.35v12.555h-6.239V99.8a9.3 9.3 0 0 0 2.04.228c5.135 0 9.298-4.182 9.298-9.342a9.345 9.345 0 0 0-5.099-8.336" mask="url(#b)"/>
        <path fill="#00D1FF" d="M152.985 92.735h4.08v-4.1h-4.08z" mask="url(#b)"/>
        <path stroke="#DDE6F2" stroke-linejoin="round" stroke-width="1.8" d="M218.924 103.417H86.551v25.278h132.373c6.947 0 12.579-5.658 12.579-12.639 0-6.98-5.632-12.639-12.579-12.639z" mask="url(#b)"/>
        <path fill="#FFF" d="M228.208 116.056c0 5.319-4.29 9.63-9.583 9.63s-9.584-4.311-9.584-9.63c0-5.318 4.291-9.63 9.584-9.63 5.292 0 9.583 4.312 9.583 9.63" mask="url(#b)"/>
        <path stroke="#DDE6F2" stroke-linejoin="round" stroke-width="1.8" d="M228.208 116.056c0 5.319-4.29 9.63-9.583 9.63s-9.584-4.311-9.584-9.63c0-5.318 4.291-9.63 9.584-9.63 5.292 0 9.583 4.312 9.583 9.63z" mask="url(#b)"/>
        <path fill="#F6F9FC" d="M222.219 116.056a3.603 3.603 0 0 1-3.594 3.611 3.603 3.603 0 0 1-3.594-3.61 3.603 3.603 0 0 1 3.594-3.612 3.603 3.603 0 0 1 3.594 3.611" mask="url(#b)"/>
        <path stroke="#DDE6F2" stroke-linejoin="round" stroke-width="1.8" d="M222.219 116.056a3.603 3.603 0 0 1-3.594 3.611 3.603 3.603 0 0 1-3.594-3.61 3.603 3.603 0 0 1 3.594-3.612 3.603 3.603 0 0 1 3.594 3.611z" mask="url(#b)"/>
        <path fill="#FFF" d="M206.645 115.906c0 5.318-4.29 9.63-9.583 9.63s-9.584-4.312-9.584-9.63c0-5.319 4.291-9.63 9.584-9.63 5.292 0 9.583 4.311 9.583 9.63" mask="url(#b)"/>
        <path stroke="#DDE6F2" stroke-linejoin="round" stroke-width="1.8" d="M206.645 115.906c0 5.318-4.29 9.63-9.583 9.63s-9.584-4.312-9.584-9.63c0-5.319 4.291-9.63 9.584-9.63 5.292 0 9.583 4.311 9.583 9.63z" mask="url(#b)"/>
        <path fill="#FFF" d="M185.082 115.755c0 5.319-4.29 9.63-9.583 9.63s-9.584-4.311-9.584-9.63c0-5.318 4.291-9.63 9.584-9.63 5.292 0 9.583 4.312 9.583 9.63" mask="url(#b)"/>
        <path stroke="#DDE6F2" stroke-linejoin="round" stroke-width="1.8" d="M185.082 115.755c0 5.319-4.29 9.63-9.583 9.63s-9.584-4.311-9.584-9.63c0-5.318 4.291-9.63 9.584-9.63 5.292 0 9.583 4.312 9.583 9.63z" mask="url(#b)"/>
        <path fill="#FFF" d="M163.52 115.605c0 5.318-4.292 9.63-9.584 9.63-5.293 0-9.584-4.312-9.584-9.63 0-5.319 4.291-9.63 9.584-9.63 5.292 0 9.583 4.311 9.583 9.63" mask="url(#b)"/>
        <path stroke="#DDE6F2" stroke-linejoin="round" stroke-width="1.8" d="M163.52 115.605c0 5.318-4.292 9.63-9.584 9.63-5.293 0-9.584-4.312-9.584-9.63 0-5.319 4.291-9.63 9.584-9.63 5.292 0 9.583 4.311 9.583 9.63z" mask="url(#b)"/>
        <path fill="#F6F9FC" d="M157.53 115.605a3.603 3.603 0 0 1-3.594 3.611 3.603 3.603 0 0 1-3.594-3.611 3.603 3.603 0 0 1 3.594-3.611 3.603 3.603 0 0 1 3.594 3.61" mask="url(#b)"/>
        <path stroke="#DDE6F2" stroke-linejoin="round" stroke-width="1.8" d="M157.53 115.605a3.603 3.603 0 0 1-3.594 3.611 3.603 3.603 0 0 1-3.594-3.611 3.603 3.603 0 0 1 3.594-3.611 3.603 3.603 0 0 1 3.594 3.61z" mask="url(#b)"/>
        <path fill="#FFF" d="M140.196 59.23H86.815c-7.528 0-13.63 6.132-13.63 13.696v42.225c0 7.563 6.102 13.695 13.63 13.695h53.38c7.528 0 13.63-6.132 13.63-13.695V72.926c0-7.564-6.102-13.695-13.63-13.695" mask="url(#b)"/>
        <path stroke="#398EFF" stroke-linejoin="round" stroke-width="1.8" d="M140.196 59.23H86.815c-7.528 0-13.63 6.132-13.63 13.696v42.225c0 7.563 6.102 13.695 13.63 13.695h53.38c7.528 0 13.63-6.132 13.63-13.695V72.926c0-7.564-6.102-13.695-13.63-13.695z" mask="url(#b)"/>
        <path fill="#FFF" d="M137.746 52.954H89.264a3.594 3.594 0 0 0-3.585 3.602v2.675h55.652v-2.675a3.593 3.593 0 0 0-3.585-3.602" mask="url(#b)"/>
        <path stroke="#398EFF" stroke-linejoin="round" stroke-width="1.8" d="M137.746 52.954H89.264a3.594 3.594 0 0 0-3.585 3.602v2.675h55.652v-2.675a3.593 3.593 0 0 0-3.585-3.602z" mask="url(#b)"/>
        <path fill="#398EFF" d="M129.22 45.31c-11.242 2.115-22.485 2.115-33.727 0-3.545-.728-7.552-4.48-8.452-8.054-2.148-9.205-2.148-18.41 0-27.616.9-3.572 4.907-7.325 8.452-8.053 11.242-2.115 22.485-2.115 33.727 0 3.545.728 7.552 4.48 8.452 8.053 2.147 9.205 2.147 18.41 0 27.616-.9 3.573-4.908 7.326-8.452 8.054" mask="url(#b)"/>
        <path fill="#398EFF" d="M136.514 33.55l10.613 7.999c2.637 1.987 6.399.096 6.399-3.215V8.562c0-3.31-3.762-5.201-6.399-3.214l-10.613 7.998" mask="url(#b)"/>
        <path fill="#FFF" d="M110.366 12.122l13.15 7.996c2.492 1.515 2.492 5.146 0 6.66l-13.15 7.996c-2.582 1.57-5.88-.298-5.88-3.33V15.452c0-3.031 3.298-4.899 5.88-3.33" mask="url(#b)"/>
        <path fill="#398EFF" d="M96.135 111.392a3.002 3.002 0 0 0 2.995-3.01v-29.49a3.002 3.002 0 0 0-2.995-3.01 3.002 3.002 0 0 0-2.995 3.01v29.49a3.002 3.002 0 0 0 2.995 3.01" mask="url(#b)"/>
        <path fill="#FFF" d="M96.24 91.832a2.04 2.04 0 0 1-1.98-1.565L89.846 71.97h4.193l4.181 17.331a2.045 2.045 0 0 1-1.98 2.53" mask="url(#b)"/>
        <path stroke="#398EFF" stroke-linejoin="round" stroke-width="1.8" d="M96.24 91.832a2.04 2.04 0 0 1-1.98-1.565L89.846 71.97h4.193l4.181 17.331a2.045 2.045 0 0 1-1.98 2.53z" mask="url(#b)"/>
        <path fill="#FFF" d="M96.584 73.024c0 3.074-2.48 5.567-5.54 5.567s-5.54-2.493-5.54-5.567c0-3.074 2.48-5.567 5.54-5.567s5.54 2.493 5.54 5.567" mask="url(#b)"/>
        <path stroke="#398EFF" stroke-linejoin="round" stroke-width="1.8" d="M96.584 73.024c0 3.074-2.48 5.567-5.54 5.567s-5.54-2.493-5.54-5.567c0-3.074 2.48-5.567 5.54-5.567s5.54 2.493 5.54 5.567z" mask="url(#b)"/>
        <path fill="#398EFF" d="M134.47 111.392a3.002 3.002 0 0 0 2.994-3.01v-29.49a3.002 3.002 0 0 0-2.995-3.01 3.002 3.002 0 0 0-2.995 3.01v29.49a3.002 3.002 0 0 0 2.995 3.01" mask="url(#b)"/>
        <path fill="#FFF" d="M134.574 91.832a2.04 2.04 0 0 1-1.98-1.565L128.18 71.97h4.193l4.181 17.331a2.045 2.045 0 0 1-1.98 2.53" mask="url(#b)"/>
        <path stroke="#398EFF" stroke-linejoin="round" stroke-width="1.8" d="M134.574 91.832a2.04 2.04 0 0 1-1.98-1.565L128.18 71.97h4.193l4.181 17.331a2.045 2.045 0 0 1-1.98 2.53z" mask="url(#b)"/>
        <path fill="#FFF" d="M134.918 73.024c0 3.074-2.48 5.567-5.54 5.567s-5.54-2.493-5.54-5.567c0-3.074 2.48-5.567 5.54-5.567s5.54 2.493 5.54 5.567" mask="url(#b)"/>
        <path stroke="#398EFF" stroke-linejoin="round" stroke-width="1.8" d="M134.918 73.024c0 3.074-2.48 5.567-5.54 5.567s-5.54-2.493-5.54-5.567c0-3.074 2.48-5.567 5.54-5.567s5.54 2.493 5.54 5.567z" mask="url(#b)"/>
        <path fill="#398EFF" d="M115.302 75.883a3.002 3.002 0 0 1 2.995 3.009v29.49a3.002 3.002 0 0 1-2.995 3.01 3.002 3.002 0 0 1-2.995-3.01v-29.49a3.002 3.002 0 0 1 2.995-3.01" mask="url(#b)"/>
        <path fill="#FFF" d="M115.407 95.443a2.04 2.04 0 0 0-1.98 1.565l-4.414 18.296h4.193l4.181-17.332a2.045 2.045 0 0 0-1.98-2.53" mask="url(#b)"/>
        <path stroke="#398EFF" stroke-linejoin="round" stroke-width="1.8" d="M115.407 95.443a2.04 2.04 0 0 0-1.98 1.565l-4.414 18.296h4.193l4.181-17.332a2.045 2.045 0 0 0-1.98-2.53z" mask="url(#b)"/>
        <path fill="#FFF" d="M115.751 114.25c0-3.074-2.48-5.566-5.54-5.566s-5.54 2.492-5.54 5.567c0 3.074 2.48 5.567 5.54 5.567s5.54-2.493 5.54-5.567" mask="url(#b)"/>
        <path stroke="#398EFF" stroke-linejoin="round" stroke-width="1.8" d="M115.751 114.25c0-3.074-2.48-5.566-5.54-5.566s-5.54 2.492-5.54 5.567c0 3.074 2.48 5.567 5.54 5.567s5.54-2.493 5.54-5.567z" mask="url(#b)"/>
        <path fill="#F6F9FC" d="M200.656 115.906a3.603 3.603 0 0 1-3.594 3.61 3.603 3.603 0 0 1-3.594-3.61 3.603 3.603 0 0 1 3.594-3.611 3.603 3.603 0 0 1 3.594 3.61" mask="url(#b)"/>
        <path stroke="#DDE6F2" stroke-linejoin="round" stroke-width="1.8" d="M200.656 115.906a3.603 3.603 0 0 1-3.594 3.61 3.603 3.603 0 0 1-3.594-3.61 3.603 3.603 0 0 1 3.594-3.611 3.603 3.603 0 0 1 3.594 3.61z" mask="url(#b)"/>
        <path fill="#F6F9FC" d="M179.093 115.755a3.603 3.603 0 0 1-3.594 3.611 3.603 3.603 0 0 1-3.594-3.61 3.603 3.603 0 0 1 3.594-3.612 3.603 3.603 0 0 1 3.594 3.611" mask="url(#b)"/>
        <path stroke="#DDE6F2" stroke-linejoin="round" stroke-width="1.8" d="M179.093 115.755a3.603 3.603 0 0 1-3.594 3.611 3.603 3.603 0 0 1-3.594-3.61 3.603 3.603 0 0 1 3.594-3.612 3.603 3.603 0 0 1 3.594 3.611z" mask="url(#b)"/>
        <path fill="#FFF" d="M47.41 73.289c-.683-.506-1.716-.884-2.499-.884h-.14c-.628 0-.837.239-.837.49v.03c0 .335.348.504 1.34.714 2.22.604 3.519 1.333 3.519 3.143v.055c0 1.684-1.214 2.779-3.017 3.017V81.3h-1.549v-1.432c-1.27-.14-2.555-.603-3.532-1.332l1.27-2.104c1.117.77 2.193 1.107 3.058 1.107h.14c.656 0 .907-.21.907-.504v-.028c0-.337-.363-.492-1.423-.717-2.179-.603-3.477-1.346-3.477-3.114v-.056c0-1.641 1.103-2.82 3.086-3.03v-.912h1.563v.926a6.313 6.313 0 0 1 2.82 1.066L47.41 73.29z" mask="url(#b)"/>
    </g>
</svg>
