<svg xmlns="http://www.w3.org/2000/svg" xmlns:xlink="http://www.w3.org/1999/xlink" width="161" height="169" viewBox="0 0 161 169">
    <defs>
        <path id="a" d="M0 168.554h160.555V0H0z"/>
    </defs>
    <g fill="none" fill-rule="evenodd">
        <path fill="#398EFF" d="M140.318 73.967a2.021 2.021 0 0 1-2.019 2.024 2.021 2.021 0 0 1-2.019-2.024c0-1.118.904-2.024 2.019-2.024 1.115 0 2.019.906 2.019 2.024z"/>
        <path fill="#FFBC00" d="M140.318 99.52a3.79 3.79 0 0 1-3.785 3.794 3.79 3.79 0 0 1-3.786-3.795 3.79 3.79 0 0 1 3.786-3.795 3.79 3.79 0 0 1 3.785 3.795"/>
        <path fill="#398EFF" d="M24.741 103.567a3.79 3.79 0 0 1-3.785 3.795 3.79 3.79 0 0 1-3.785-3.795 3.79 3.79 0 0 1 3.785-3.795 3.79 3.79 0 0 1 3.785 3.795"/>
        <path fill="#FFF" d="M77.954 142.717c-33.483 0-60.722-27.31-60.722-60.878s27.24-60.878 60.722-60.878c33.483 0 60.723 27.31 60.723 60.878s-27.24 60.878-60.723 60.878"/>
        <path fill="#DDE6F2" d="M77.954 20.202c-16.422 0-31.86 6.412-43.473 18.053C22.87 49.897 16.475 65.375 16.475 81.84c0 16.464 6.394 31.942 18.006 43.583 11.613 11.642 27.051 18.054 43.473 18.054s31.861-6.412 43.473-18.054c11.612-11.641 18.007-27.12 18.007-43.583 0-16.464-6.395-31.942-18.007-43.584-11.612-11.641-27.05-18.053-43.473-18.053m0 1.518c33.118 0 59.966 26.916 59.966 60.119s-26.848 60.119-59.966 60.119-59.965-26.916-59.965-60.12c0-33.202 26.847-60.118 59.965-60.118"/>
        <path fill="#F0F5F9" d="M127.367 100.637c-.379.144-.637.492-.873.822l-3.373 4.71c-.455.637-.913 1.277-1.26 1.98a7.251 7.251 0 0 0-.733 2.744c-.02.315-.01.66.194.9.299.356.87.307 1.285.102.688-.34 1.173-.993 1.522-1.678.348-.686.587-1.423.941-2.106.623-1.2 1.581-2.186 2.335-3.309.51-.76.938-1.627 1.051-2.548.083-.676-.027-2.023-1.089-1.617M81.866 35.828c-.475.001-.963.01-1.406.184-.163.063-.324.155-.426.298-.187.26-.13.64.058.899.188.26.48.423.771.555.762.345 1.624.532 2.441.353.817-.179 1.572-.776 1.783-1.587.028-.108.046-.226.003-.329-.27-.64-2.676-.374-3.224-.373M92.29 41.904c-.366-.183-.816-.13-1.182.054s-.66.482-.929.79c-.558.643-1.04 1.37-1.284 2.185-.244.816-.232 1.73.156 2.489.1.192.224.376.394.51.183.145.408.224.632.29 1.11.322 2.28.36 3.435.372.767.007 1.574-.005 2.243-.384.216-.122.419-.29.511-.52.138-.342-.003-.744-.25-1.016-.247-.27-.584-.439-.913-.602-.329-.163-.666-.334-.91-.609-.477-.537-.486-1.3-.776-1.929-.132-.289-.32-.516-.451-.809-.148-.33-.342-.653-.677-.82"/>
        <path fill="#F0F5F9" d="M112.625 32.674a6.979 6.979 0 0 0-1.26 1c-.64.648-1.217 1.46-2.098 1.682-1.345.338-2.536-.837-3.582-1.75-1.324-1.158-3.166-2.063-4.802-1.421-1.013.397-1.731 1.315-2.255 2.27-.524.956-.91 1.992-1.53 2.888-.362.524-.804.998-1.093 1.567a3.462 3.462 0 0 0 .133 3.313 3.447 3.447 0 0 0 2.891 1.613c.71-.003 1.663-.087 1.88.59a.893.893 0 0 1-.04.595c-.35.883-1.483 1.082-2.259 1.628-1.212.854-1.54 2.59-2.732 3.473-.498.368-1.112.558-1.591.95-.187.153-.358.353-.376.593-.033.44.441.752.547 1.18.166.668-.599 1.189-1.27 1.335-1.132.246-2.402.108-3.357.767-1.33.918-1.31 3.056-.288 4.309 1.022 1.253 2.706 1.76 4.315 1.896.9.076 1.83.053 2.678-.261.848-.314 1.61-.955 1.899-1.814.294-.873.126-1.963.792-2.597.248-.236.578-.365.91-.441 1.69-.391 3.393.449 4.923 1.263l4.165 2.217c.75.398 1.531.659 2.294 1.03.342.166.72.337 1.09.249.555-.133.82-.783.84-1.356.019-.572-.118-1.155.016-1.711.262-1.083 1.473-1.777 1.614-2.883.07-.538-.096-1.195.318-1.545.188-.158.447-.197.692-.213 2.302-.161 4.64 1.17 5.681 3.233.116.23.217.505.104.736-.113.229-.39.317-.641.363-1.698.313-3.657-.178-5.023.879-.561.434-.944 1.211-.665 1.865.275.644 1.049.901 1.743.977.695.076 1.438.056 2.034.423 1.031.636 1.129 2.08 1.07 3.292-.01.225-.024.456-.123.658-.167.341-.54.528-.905.632a3.605 3.605 0 0 1-2.972-.481c-.665-.452-1.2-1.143-1.977-1.352-1.689-.454-3.248 1.61-4.966 1.28-.585-.112-1.078-.49-1.596-.785-1.748-.996-3.854-1.068-5.865-1.092-1.52-.018-3.048-.023-4.553.193a15.72 15.72 0 0 0-9.023 4.635c-2.367 2.466-3.765 5.875-4.103 9.28-.339 3.406.682 7.005 3.058 9.461.372.384.782.744 1.268.965.421.192.885.27 1.344.325a14.49 14.49 0 0 0 7.8-1.246c1.523-.71 3.092-1.716 4.743-1.403 1.245.237 2.292 1.293 2.521 2.541.196 1.063-.158 2.158-.058 3.234.201 2.167 2.195 3.975 1.984 6.141-.128 1.321-1.059 2.409-1.55 3.642-1.258 3.156.479 6.674.439 10.072-.019 1.56-.416 3.09-.57 4.641-.037.367-.056.753.1 1.087.346.744 1.357.866 2.162.716 2.382-.442 4.269-2.268 5.72-4.213 1.452-1.945 2.644-4.114 4.416-5.77 1.903-1.778 4.44-2.935 5.828-5.14 2.025-3.216.953-7.58 2.562-11.024 1.332-2.851 4.406-4.868 4.849-7.985.054-.378.038-.824-.26-1.06-.193-.152-.455-.175-.7-.18a9.1 9.1 0 0 0-2.752.355c-.758-.534-1.115-1.558-1.4-2.441a95.556 95.556 0 0 0-4.157-10.684c-.087-.19-.176-.388-.159-.596.017-.207.185-.417.392-.4.104.008.196.07.274.138.202.177.347.408.482.64 1.957 3.333 2.669 7.275 4.538 10.66.247.449.603.94 1.115.944.435.003.777-.352 1.062-.682l3.242-3.732c.612-.705 1.24-1.44 1.504-2.337.284-.974.104-2.012.017-3.023-.014-.167-.014-.363.115-.469.098-.08.236-.08.361-.076l.955.028 2.366 6.554c-1.316-18.528-11.004-34.733-25.295-44.835M77.954 21.72c-20.136 0-37.954 9.952-48.829 25.216-.122.5-.218 1.008-.287 1.514-.24 1.76-.244 3.548-.528 5.301-.442 2.738-.928 5.973-3.194 7.564-1.06.744-1.568 2.095-1.59 3.39-.023 1.298.374 2.562.805 3.784.46 1.302.966 2.588 1.514 3.855.94 2.17 1.578 4.367 1.54 6.733-.036 2.35 1.604 4.627 3.84 5.331.672.212 1.381.292 2.048.524 1.74.604 2.97 2.143 4.526 3.128 1.62 1.024 3.748 1.598 4.544 3.343.551 1.208.027 2.526-.271 3.822-.315 1.37-.916 2.66-1.275 4.02-.36 1.36-.457 2.875.203 4.117.551 1.038 1.564 1.765 2.14 2.79.7 1.248.694 2.839 1.56 3.978 1.171 1.54 3.438 1.673 5.006 2.805 1.265.912 1.984 2.424 2.317 3.95.332 1.527.329 3.104.443 4.663.209 2.842.897 5.81 2.863 7.87.842.882 1.88 1.552 2.783 2.37 1.036.939 1.892 2.067 2.958 2.97 1.066.905 2.44 1.589 3.82 1.386-.268-1.403-1.581-2.34-2.246-3.604-1.159-2.203-.154-4.925 1.19-7.019 1.345-2.095 3.072-4.088 3.458-6.549.088-.571.108-1.175.396-1.677.182-.318.459-.569.749-.793 1.231-.953 2.835-1.586 3.515-2.99.473-.974.389-2.131.754-3.151.341-.951 1.05-1.724 1.487-2.634.438-.91.533-2.267-.233-2.923l-.727.33c-2.867-3.389-8.479-2.8-11.83-5.708-1.617-1.403-2.507-3.457-3.872-5.107a11.062 11.062 0 0 0-5.99-3.699c-1.525-.352-3.108-.372-4.649-.651-1.54-.279-3.112-.871-4.094-2.093-.677-.843-1.025-1.926-1.758-2.722-1.813-1.969-5.104-1.437-7.397-2.815-.565-.34-1.077-.82-1.293-1.442-.157-.454-.147-.948-.125-1.428.096-2.155.573-4.617 2.443-5.683 1.335-.76 2.979-.564 4.507-.718 2.859-.287 5.548-1.953 7.083-4.388 1.194-1.895 1.77-4.268 3.52-5.663 1.51-1.203 3.61-1.426 5.162-2.574.534-.396.996-.896 1.58-1.214 1.051-.572 2.318-.47 3.513-.512 1.195-.042 2.536-.342 3.152-1.369.279-.465.366-1.02.385-1.563a7.105 7.105 0 0 0-.923-3.75c-.472-.826-1.104-1.547-1.615-2.348-.936-1.468-1.342-3.253-1.696-4.959a5.546 5.546 0 0 1 1.153-4.603c.27-.325.586-.628.747-1.02.353-.856-.137-1.831-.752-2.524-.615-.692-1.383-1.287-1.747-2.139-.692-1.622.372-3.496 1.744-4.6 1.325-1.064 3.053-1.732 4.73-1.457 1.676.275 3.21 1.652 3.343 3.35.148 1.886-1.316 3.498-1.747 5.34-.636 2.717 1.462 5.748 4.223 6.104.487.062 1.006.047 1.436-.192.421-.233.706-.65.946-1.068.9-1.571 1.41-3.402 2.655-4.714.89-.938 2.078-1.523 3.131-2.273 1.053-.75 2.038-1.785 2.17-3.073.184-1.814-1.32-3.287-2.242-4.857-.925-1.577-1.283-3.469-1.041-5.28l-.13-.002"/>
        <path fill="#398EFF" d="M114.073 69.413a3.033 3.033 0 0 1-3.028 3.036 3.033 3.033 0 0 1-3.028-3.036 3.033 3.033 0 0 1 3.028-3.036 3.033 3.033 0 0 1 3.028 3.036M49.471 90.665a2.021 2.021 0 0 1-2.018 2.023 2.021 2.021 0 0 1-2.02-2.023c0-1.118.905-2.024 2.02-2.024s2.018.906 2.018 2.024M66.631 127.096a2.021 2.021 0 0 1-2.018 2.024 2.021 2.021 0 0 1-2.02-2.024c0-1.118.905-2.024 2.02-2.024 1.114 0 2.018.906 2.018 2.024"/>
        <path fill="#FFBC00" d="M94.39 66.377a2.021 2.021 0 0 1-2.019 2.024 2.021 2.021 0 0 1-2.019-2.024c0-1.118.904-2.024 2.02-2.024 1.114 0 2.018.906 2.018 2.024M31.807 57.775a2.78 2.78 0 0 1-2.776 2.783 2.78 2.78 0 0 1-2.776-2.783 2.78 2.78 0 0 1 2.776-2.783 2.78 2.78 0 0 1 2.776 2.783"/>
        <path fill="#398EFF" d="M70.164 34.5a2.021 2.021 0 0 1-2.019 2.024 2.021 2.021 0 0 1-2.018-2.024c0-1.118.904-2.024 2.018-2.024 1.115 0 2.02.906 2.02 2.024"/>
        <path fill="#FFBC00" d="M129.72 88.64a2.021 2.021 0 0 1-2.02 2.025 2.021 2.021 0 0 1-2.019-2.024c0-1.118.904-2.024 2.02-2.024 1.114 0 2.018.906 2.018 2.024"/>
        <path fill="#398EFF" d="M106.503 57.27a2.021 2.021 0 0 1-2.019 2.023 2.021 2.021 0 0 1-2.019-2.024c0-1.117.904-2.024 2.019-2.024 1.115 0 2.019.907 2.019 2.024M107.885 100.254c-.789-.526-1.8-.842-2.906-.842-2.514 0-4.552 1.634-4.552 3.651 0 2.016 2.038 2.677 4.552 2.677h.009c-.005-.096-.019-.187-.019-.285 0-2.1 1.14-3.973 2.916-5.201M125.177 103.063c0-2.016-2.038-3.651-4.552-3.651-1.1 0-2.11.313-2.897.835 1.782 1.228 2.926 3.105 2.926 5.208 0 .098-.013.19-.019.285 2.51-.002 4.542-.663 4.542-2.677M116.092 95.977c0-2.096-1.19-3.795-3.28-3.795s-3.281 1.7-3.281 3.795c0 2.097 1.19 3.795 3.28 3.795 2.091 0 3.281-1.698 3.281-3.795M118.635 105.455c0-2.58-2.607-4.67-5.824-4.67-3.216 0-5.823 2.09-5.823 4.67s2.607 3.425 5.823 3.425c3.217 0 5.824-.845 5.824-3.425M117.946 97.488c.387.684 1.05 1.133 1.955 1.133 1.495 0 2.346-1.215 2.346-2.713 0-1.499-.85-2.713-2.346-2.713-.92 0-1.595.463-1.978 1.166-.24.44-.367.971-.367 1.547 0 .591.137 1.135.39 1.58M107.696 94.384c-.381-.718-1.062-1.19-1.993-1.19-1.495 0-2.346 1.215-2.346 2.714 0 1.499.85 2.713 2.346 2.713.915 0 1.585-.458 1.97-1.155.244-.441.375-.977.375-1.558 0-.565-.121-1.09-.352-1.524"/>
        <path fill="#FFBC00" d="M39.239 103.53c-.628-.417-1.434-.669-2.313-.669-2.002 0-3.625 1.301-3.625 2.906 0 1.606 1.623 2.132 3.625 2.132h.006c-.004-.077-.014-.15-.014-.227 0-1.672.907-3.163 2.32-4.141M53.004 105.767c0-1.605-1.622-2.906-3.623-2.906-.877 0-1.68.25-2.306.664 1.418.978 2.329 2.472 2.329 4.147 0 .077-.01.15-.015.227 1.997-.002 3.615-.529 3.615-2.132M45.772 100.127c0-1.67-.947-3.022-2.611-3.022-1.665 0-2.612 1.353-2.612 3.022 0 1.668.947 3.02 2.612 3.02 1.664 0 2.611-1.352 2.611-3.02M47.797 107.671c0-2.053-2.076-3.718-4.636-3.718s-4.636 1.665-4.636 3.718c0 2.054 2.075 2.727 4.636 2.727 2.56 0 4.636-.673 4.636-2.727M47.248 101.33c.308.543.836.9 1.557.9 1.19 0 1.867-.966 1.867-2.159 0-1.193-.677-2.16-1.867-2.16-.733 0-1.27.369-1.576.93-.19.348-.292.772-.292 1.23 0 .47.11.904.31 1.258M39.088 98.858c-.304-.571-.846-.947-1.587-.947-1.19 0-1.867.967-1.867 2.16s.678 2.16 1.867 2.16c.729 0 1.262-.365 1.569-.92.194-.351.298-.777.298-1.24 0-.45-.096-.867-.28-1.213M100.308 44.33c-.628-.418-1.434-.67-2.313-.67-2.002 0-3.625 1.301-3.625 2.906 0 1.606 1.623 2.132 3.625 2.132H98c-.004-.077-.014-.15-.014-.227 0-1.671.906-3.163 2.32-4.141M114.073 46.566c0-1.605-1.622-2.905-3.623-2.905-.877 0-1.68.248-2.306.663 1.418.978 2.329 2.473 2.329 4.147 0 .077-.01.15-.015.227 1.997-.002 3.615-.529 3.615-2.132M106.841 40.926c0-1.669-.947-3.021-2.611-3.021-1.665 0-2.612 1.352-2.612 3.021 0 1.668.947 3.021 2.612 3.021 1.664 0 2.611-1.353 2.611-3.021M108.866 48.47c0-2.053-2.076-3.718-4.637-3.718-2.56 0-4.635 1.665-4.635 3.719s2.075 2.727 4.635 2.727c2.561 0 4.637-.673 4.637-2.727M108.317 42.129c.308.544.836.901 1.557.901 1.19 0 1.867-.967 1.867-2.16s-.677-2.16-1.867-2.16c-.733 0-1.27.37-1.576.93-.19.349-.292.772-.292 1.23 0 .471.11.904.31 1.259M100.157 39.658c-.304-.572-.846-.948-1.587-.948-1.19 0-1.867.967-1.867 2.16s.677 2.16 1.867 2.16c.729 0 1.262-.364 1.569-.919.194-.352.298-.778.298-1.24 0-.45-.096-.867-.28-1.213"/>
        <path fill="#398EFF" d="M127.446 60.139c1.664 0 2.612-1.353 2.612-3.022 0-1.668-.948-3.02-2.612-3.02-1.664 0-2.611 1.352-2.611 3.02 0 1.67.947 3.022 2.611 3.022M127.446 60.944c-2.56 0-4.636 1.665-4.636 3.719 0 2.053 2.076 2.726 4.636 2.726s4.636-.673 4.636-2.726c0-2.054-2.076-3.719-4.636-3.719M47.703 40.405c1.664 0 2.612-1.352 2.612-3.021 0-1.669-.948-3.02-2.612-3.02-1.664 0-2.611 1.351-2.611 3.02s.947 3.021 2.611 3.021M47.703 41.21c-2.56 0-4.636 1.665-4.636 3.72 0 2.052 2.076 2.725 4.636 2.725s4.636-.673 4.636-2.726c0-2.054-2.076-3.718-4.636-3.718"/>
        <path stroke="#398EFF" stroke-dasharray="0.503999966144562,3.527999667644508" stroke-linecap="round" stroke-linejoin="round" stroke-width="1.512" d="M67.893 30.199c5.047-32.383 43.404-28.841 35.33 5.566M62.846 130.385c-26.409 19.32-63.088 3.541-46.433-22.264M141.58 72.702c27.254-11.638 14.636-57.683-27.254-33.901M108.346 134.385c-.581 31.419-62.66 42.55-65.183-22.216M94.642 103.061S54.266 86.87 50.23 50.438"/>
        <mask id="b" fill="#fff">
            <use xlink:href="#a"/>
        </mask>
        <path fill="#FFF" d="M75.464 94.965h3.028v-4.048h-3.028z" mask="url(#b)"/>
        <path stroke="#398EFF" stroke-dasharray="0.503999966144562,3.527999667644508" stroke-linecap="round" stroke-linejoin="round" stroke-width="1.512" d="M34.583 94.965S-7.577 68.57 17.928 41.837c11.103-11.638 25.235-6.578 25.235-6.578M54.266 103.061s41.386-10.12 49.966-41.997M109.783 112.169s.038 12.801 15.141 15.686c10.6 2.024 24.73-7.084 15.646-23.782" mask="url(#b)"/>
        <path fill="#FFF" d="M140.337 133.151c-4.756 0-8.626-3.88-8.626-8.648 0-4.769 3.87-8.649 8.626-8.649 4.756 0 8.626 3.88 8.626 8.649 0 4.768-3.87 8.648-8.626 8.648" mask="url(#b)"/>
        <path fill="#DDE6F2" d="M140.337 115.365c-5.026 0-9.114 4.1-9.114 9.138 0 5.039 4.088 9.137 9.114 9.137 5.026 0 9.115-4.098 9.115-9.137 0-5.038-4.09-9.138-9.115-9.138m0 .98c4.494 0 8.138 3.652 8.138 8.158 0 4.506-3.644 8.159-8.138 8.159s-8.138-3.653-8.138-8.159 3.644-8.158 8.138-8.158" mask="url(#b)"/>
        <path fill="#00D1FF" d="M137.397 126.23v-4.674h4.368v-3.42a6.51 6.51 0 0 0-1.428-.16c-3.595 0-6.51 2.922-6.51 6.527a6.528 6.528 0 0 0 3.57 5.823v-4.096zM143.277 118.68V127.451h-4.368v3.42c.46.103.937.159 1.428.159 3.596 0 6.51-2.922 6.51-6.527a6.526 6.526 0 0 0-3.57-5.823" mask="url(#b)"/>
        <path fill="#00D1FF" d="M138.91 125.934h2.855v-2.863h-2.856z" mask="url(#b)"/>
        <path fill="#FFF" d="M151.44 50.675c-4.756 0-8.626-3.88-8.626-8.648 0-4.769 3.87-8.649 8.627-8.649 4.756 0 8.625 3.88 8.625 8.649 0 4.768-3.87 8.648-8.625 8.648" mask="url(#b)"/>
        <path fill="#DDE6F2" d="M151.44 32.889c-5.025 0-9.114 4.1-9.114 9.138 0 5.039 4.089 9.137 9.115 9.137 5.025 0 9.114-4.098 9.114-9.137 0-5.039-4.089-9.138-9.114-9.138m0 .98c4.494 0 8.137 3.652 8.137 8.158 0 4.506-3.643 8.159-8.137 8.159-4.495 0-8.139-3.653-8.139-8.159s3.644-8.158 8.139-8.158" mask="url(#b)"/>
        <path fill="#00D1FF" d="M148.5 43.753V39.08h4.369v-3.42a6.51 6.51 0 0 0-1.428-.16c-3.596 0-6.51 2.922-6.51 6.527a6.528 6.528 0 0 0 3.57 5.823v-4.096zM154.38 36.204V44.975h-4.368v3.42c.46.103.938.159 1.429.159 3.595 0 6.51-2.922 6.51-6.527a6.526 6.526 0 0 0-3.57-5.823" mask="url(#b)"/>
        <path fill="#00D1FF" d="M150.013 43.458h2.856v-2.863h-2.856z" mask="url(#b)"/>
        <path fill="#FFF" d="M90.372 17.786c-4.757 0-8.627-3.88-8.627-8.648 0-4.769 3.87-8.649 8.627-8.649 4.756 0 8.625 3.88 8.625 8.649 0 4.768-3.87 8.648-8.625 8.648" mask="url(#b)"/>
        <path fill="#DDE6F2" d="M90.372 0c-5.026 0-9.115 4.1-9.115 9.138 0 5.039 4.089 9.137 9.115 9.137 5.025 0 9.114-4.098 9.114-9.137C99.486 4.099 95.397 0 90.372 0m0 .98c4.494 0 8.137 3.652 8.137 8.158 0 4.506-3.643 8.158-8.137 8.158-4.495 0-8.139-3.652-8.139-8.158 0-4.506 3.644-8.159 8.139-8.159" mask="url(#b)"/>
        <path fill="#00D1FF" d="M87.431 10.864V6.19H91.8V2.77a6.51 6.51 0 0 0-1.428-.16c-3.596 0-6.51 2.923-6.51 6.528a6.528 6.528 0 0 0 3.57 5.823v-4.096zM93.312 3.315v8.771h-4.369v3.42c.46.102.938.158 1.429.158 3.595 0 6.51-2.922 6.51-6.526a6.526 6.526 0 0 0-3.57-5.823" mask="url(#b)"/>
        <path fill="#00D1FF" d="M88.944 10.57H91.8V7.705h-2.856z" mask="url(#b)"/>
        <path fill="#FFF" d="M9.115 63.83c-4.757 0-8.627-3.88-8.627-8.648s3.87-8.648 8.627-8.648c4.756 0 8.625 3.88 8.625 8.648 0 4.769-3.87 8.649-8.625 8.649" mask="url(#b)"/>
        <path fill="#DDE6F2" d="M9.115 46.045c-5.026 0-9.115 4.1-9.115 9.138S4.09 64.32 9.115 64.32c5.025 0 9.114-4.099 9.114-9.137 0-5.039-4.089-9.138-9.114-9.138m0 .98c4.494 0 8.137 3.651 8.137 8.158 0 4.506-3.643 8.158-8.137 8.158-4.495 0-8.139-3.652-8.139-8.158 0-4.507 3.644-8.159 8.139-8.159" mask="url(#b)"/>
        <path fill="#00D1FF" d="M6.174 56.909v-4.674h4.369v-3.42a6.51 6.51 0 0 0-1.428-.16c-3.596 0-6.51 2.923-6.51 6.528a6.528 6.528 0 0 0 3.57 5.823V56.909zM12.055 49.36v8.77H7.686v3.42c.46.103.938.16 1.429.16 3.595 0 6.51-2.923 6.51-6.527a6.526 6.526 0 0 0-3.57-5.823" mask="url(#b)"/>
        <path fill="#00D1FF" d="M7.687 56.614h2.856v-2.863H7.687z" mask="url(#b)"/>
        <path fill="#FFF" d="M15.676 137.705c-4.757 0-8.627-3.88-8.627-8.648 0-4.769 3.87-8.649 8.627-8.649 4.756 0 8.626 3.88 8.626 8.649 0 4.768-3.87 8.648-8.626 8.648" mask="url(#b)"/>
        <path fill="#DDE6F2" d="M15.676 119.919c-5.026 0-9.115 4.1-9.115 9.138 0 5.039 4.089 9.137 9.115 9.137 5.025 0 9.114-4.098 9.114-9.137 0-5.039-4.089-9.138-9.114-9.138m0 .98c4.494 0 8.137 3.652 8.137 8.158 0 4.506-3.643 8.159-8.137 8.159-4.495 0-8.139-3.653-8.139-8.159s3.644-8.158 8.139-8.158" mask="url(#b)"/>
        <path fill="#00D1FF" d="M12.735 130.783v-4.674h4.369v-3.42a6.51 6.51 0 0 0-1.428-.16c-3.596 0-6.51 2.923-6.51 6.528a6.528 6.528 0 0 0 3.57 5.823v-4.096zM18.616 123.234V132.005h-4.369v3.42c.46.102.938.159 1.429.159 3.595 0 6.51-2.922 6.51-6.527a6.526 6.526 0 0 0-3.57-5.823" mask="url(#b)"/>
        <path fill="#00D1FF" d="M14.248 130.488h2.856v-2.863h-2.856z" mask="url(#b)"/>
        <path fill="#FFF" d="M78.259 168.064c-4.757 0-8.627-3.88-8.627-8.648s3.87-8.648 8.627-8.648c4.756 0 8.626 3.88 8.626 8.648s-3.87 8.648-8.626 8.648" mask="url(#b)"/>
        <path fill="#DDE6F2" d="M78.259 150.278c-5.026 0-9.115 4.1-9.115 9.138 0 5.039 4.089 9.137 9.115 9.137s9.114-4.098 9.114-9.137c0-5.038-4.088-9.138-9.114-9.138m0 .98c4.494 0 8.138 3.652 8.138 8.158 0 4.506-3.644 8.159-8.138 8.159-4.495 0-8.139-3.653-8.139-8.159s3.644-8.158 8.139-8.158" mask="url(#b)"/>
        <path fill="#00D1FF" d="M75.319 161.143v-4.674h4.368v-3.42a6.51 6.51 0 0 0-1.428-.16c-3.596 0-6.51 2.922-6.51 6.527a6.528 6.528 0 0 0 3.57 5.823v-4.096zM81.199 153.593V162.364H76.83v3.42c.46.103.937.159 1.428.159 3.595 0 6.51-2.922 6.51-6.527a6.526 6.526 0 0 0-3.57-5.823" mask="url(#b)"/>
        <path fill="#00D1FF" d="M76.83 160.848h2.857v-2.864H76.83z" mask="url(#b)"/>
    </g>
</svg>
