<svg xmlns="http://www.w3.org/2000/svg" xmlns:xlink="http://www.w3.org/1999/xlink" width="73" height="62" viewBox="0 0 73 62">
    <defs>
        <path id="a" d="M0 61.455h72.143V0H0z"/>
    </defs>
    <g fill="none" fill-rule="evenodd">
        <mask id="b" fill="#fff">
            <use xlink:href="#a"/>
        </mask>
        <path fill="#398EFF" d="M1.381 35.164L14.726 5.365l56.373 24.669-13.343 29.8z" mask="url(#b)"/>
        <path fill="#FFF" d="M13.084 5.991L.747 33.541l-1.006 2.25 2.275.996 54.1 23.674 2.274.995 1.006-2.25 12.337-27.551 1.008-2.25-2.276-.994L16.367 4.737l-2.275-.995-1.008 2.25zM3.024 34.538l12.335-27.55 54.1 23.672-12.337 27.55L3.024 34.538z" mask="url(#b)"/>
        <path fill="#FFF" d="M47.716 37.62c-2.805 6.266-10.218 9.097-16.555 6.323-6.338-2.773-9.201-10.1-6.396-16.366 2.806-6.266 10.218-9.096 16.556-6.322 6.337 2.773 9.2 10.1 6.395 16.365" mask="url(#b)"/>
        <path fill="#398EFF" d="M40.938 31.623c-.657-1.137-1.893-2.313-3.01-2.802l-.2-.087c-.897-.392-1.346-.188-1.504.166l-.017.04c-.211.472.18.927 1.462 1.842 2.79 2.233 4.183 4.066 3.045 6.608l-.035.079c-1.057 2.362-3.478 3.14-6.2 2.351l-.908 2.028-2.21-.968.899-2.01c-1.724-.988-3.266-2.44-4.202-4.075l3.136-2.16c1.108 1.78 2.43 2.924 3.666 3.464l.199.087c.935.41 1.427.272 1.612-.142l.017-.04c.212-.472-.209-.915-1.58-1.892-2.73-2.208-4.115-4.062-3.004-6.544l.035-.079c1.033-2.304 3.346-3.27 6.308-2.327l.573-1.28 2.231.976-.582 1.3c1.486.885 2.595 2.03 3.354 3.258l-3.085 2.207z" mask="url(#b)"/>
        <path fill="#22E5FF" d="M3.892 34.926l6.31-31.986 60.51 11.667-6.309 31.985z" mask="url(#b)"/>
        <path fill="#FFF" d="M9.22 1.498l-.477 2.414-5.834 29.572-.476 2.414 2.442.47 58.068 11.196 2.442.47.477-2.414 5.834-29.572.475-2.414-2.442-.47L11.661 1.97 9.22 1.498zm1.965 2.885l58.07 11.195L63.42 45.15 5.35 33.955l5.835-29.572z" mask="url(#b)"/>
        <path fill="#FFF" d="M49.62 27.141c-1.327 6.725-7.917 11.113-14.72 9.802-6.802-1.312-11.242-7.827-9.915-14.551 1.326-6.726 7.917-11.114 14.72-9.803 6.802 1.312 11.242 7.826 9.915 14.552" mask="url(#b)"/>
        <path fill="#398EFF" d="M41.663 22.782c-.896-.962-2.366-1.84-3.564-2.07l-.214-.041c-.964-.186-1.355.112-1.43.493l-.008.042c-.101.507.384.863 1.84 1.474 3.221 1.565 4.993 3.046 4.454 5.774l-.016.085c-.5 2.536-2.686 3.827-5.516 3.655l-.43 2.176-2.374-.457.426-2.157c-1.904-.585-3.734-1.663-5.014-3.051l2.573-2.795c1.48 1.493 3.028 2.317 4.353 2.572l.214.042c1.005.193 1.451-.049 1.54-.493l.007-.042c.1-.508-.41-.847-1.967-1.499-3.157-1.552-4.925-3.056-4.398-5.72l.016-.084c.487-2.473 2.528-3.923 5.626-3.655l.272-1.374 2.394.461-.276 1.395c1.648.537 2.987 1.41 4.003 2.44l-2.511 2.83z" mask="url(#b)"/>
        <path fill="#DDE6F2" d="M6.652 33.276L6.718.687l61.65.122-.065 32.589z" mask="url(#b)"/>
        <path fill="#FFF" d="M5.476-.545l-.005 2.46-.06 30.129-.005 2.46 2.487.004 59.163.117 2.488.005.005-2.46.061-30.128.005-2.46-2.488-.005L7.964-.54 5.476-.545zM7.96 1.92l59.163.117-.06 30.129-59.164-.117.061-30.13z" mask="url(#b)"/>
        <path fill="#FFF" d="M50.06 17.068c-.014 6.852-5.644 12.394-12.574 12.38-6.932-.013-12.54-5.579-12.525-12.43.014-6.852 5.643-12.396 12.574-12.38 6.932.013 12.538 5.577 12.525 12.43" mask="url(#b)"/>
        <path fill="#398EFF" d="M41.411 14.278c-1.065-.778-2.676-1.362-3.896-1.365h-.219c-.98-.002-1.307.364-1.309.752v.043c0 .516.543.776 2.09 1.102 3.462.933 5.486 2.057 5.48 4.835v.086c-.005 2.585-1.903 4.261-4.716 4.621l-.004 2.219-2.418-.004.005-2.197c-1.982-.22-3.984-.935-5.508-2.058l1.99-3.225c1.74 1.188 3.416 1.707 4.767 1.71h.218c1.024.003 1.417-.32 1.417-.772v-.043c0-.518-.564-.755-2.218-1.103-3.398-.934-5.422-2.078-5.417-4.793l.002-.086c.005-2.52 1.729-4.326 4.824-4.643l.002-1.4 2.44.005-.004 1.422c1.72.219 3.203.824 4.399 1.645l-1.925 3.25z" mask="url(#b)"/>
    </g>
</svg>
