<svg xmlns="http://www.w3.org/2000/svg" xmlns:xlink="http://www.w3.org/1999/xlink" width="172" height="154" viewBox="0 0 172 154">
    <defs>
        <path id="a" d="M2.598 19.99A12.265 12.265 0 0 1 .01 12.436C.01 5.633 5.526.118 12.328.118c2.847 0 5.468.966 7.553 2.587V19.99H2.598z"/>
        <path id="c" d="M.414 19.225a12.275 12.275 0 0 0 8.478 3.382c6.803 0 12.318-5.515 12.318-12.319A12.3 12.3 0 0 0 16.156.34H1.628C1.202.651.796.99.414 1.352v17.873z"/>
        <path id="e" d="M2.995 19.99a12.25 12.25 0 0 1-2.592-7.554C.403 5.633 5.93.118 12.745.118c2.852 0 5.478.966 7.568 2.587V19.99H2.995z"/>
        <path id="g" d="M.378 19.225a12.313 12.313 0 0 0 8.494 3.382c6.816 0 12.342-5.515 12.342-12.319 0-4.086-1.994-7.708-5.064-9.949H1.594C1.167.651.76.99.378 1.352v17.873z"/>
    </defs>
    <g fill="none" fill-rule="evenodd">
        <path fill="#398EFF" d="M137.572 103.621c0 .947-.765 1.715-1.709 1.715a1.712 1.712 0 0 1-1.708-1.715c0-.947.765-1.715 1.708-1.715.944 0 1.71.768 1.71 1.715M132.02 126.136a3.21 3.21 0 0 1-3.205 3.216 3.21 3.21 0 0 1-3.203-3.216 3.21 3.21 0 0 1 3.203-3.217 3.21 3.21 0 0 1 3.204 3.217M39.753 117.13a4.066 4.066 0 0 1-4.058 4.074 4.066 4.066 0 0 1-4.058-4.074 4.066 4.066 0 0 1 4.058-4.074 4.066 4.066 0 0 1 4.058 4.074"/>
        <path fill="#F0F5F9" d="M83.786 83.62c-10.6 0-17.826-2.58-20.898-7.465-2.186-3.473-3.022-7.626-3.574-10.375-.288-1.427-.477-2.37-.774-2.861-.302-.502-.79-1.045-1.305-1.62-.85-.947-1.814-2.021-2.133-3.096-.452-1.522-.619-6.547-.69-8.693a99.756 99.756 0 0 0-.035-.998c-.025-.535 1.27-1.118 2.174-1.317l.502-.11-.012-.515c-.003-.15-.355-14.939-.512-18.938-.197-5.073 3.125-16.04 17.117-21.236C85.234 2.093 94.35 1.068 97.958.825c-.778.843-1.635 2.046-1.746 3.338-.082.94.227 1.789.917 2.524 1.391 1.484 3.342 2.838 5.228 4.147 1.619 1.124 3.293 2.286 4.585 3.51 2.853 2.705 4.354 7.574 4.541 10.954.155 2.79.001 21.096 0 21.281l-.007.716.708-.09c.014-.002.168-.02.384-.02.591 0 1.036.129 1.179.338.282 1.35-1.281 12.61-1.794 14.104l-.197.114c-1.545.888-2.47 1.549-2.628 2.299l-.015.072c-.494 2.378-2.415 10.403-6.408 13.796-4.258 3.618-8.718 5.713-18.919 5.713"/>
        <path fill="#DDE6F2" d="M99.635.123S88.742.123 73.43 5.81c-15.313 5.686-17.68 17.807-17.523 21.847.158 4.04.511 18.927.511 18.927s-2.726.593-2.664 1.957c.063 1.363.188 7.943.75 9.84.564 1.897 2.752 3.616 3.503 4.861.75 1.245 1.048 7.993 4.354 13.247 3.306 5.255 10.948 7.757 21.425 7.757 10.041 0 14.744-1.97 19.321-5.86 4.579-3.892 6.473-13.469 6.63-14.216.158-.749 2.21-1.797 2.685-2.096.473-.299 2.367-13.916 1.894-14.814-.317-.6-1.2-.7-1.748-.7-.272 0-.463.024-.463.024s.158-18.478 0-21.321c-.208-3.763-1.894-8.68-4.735-11.373-2.841-2.693-7.262-4.938-9.787-7.631C95.057 3.565 99.635.123 99.635.123M96.57 1.565c-.497.746-.899 1.615-.98 2.544-.095 1.109.28 2.149 1.085 3.007 1.437 1.532 3.414 2.905 5.327 4.233 1.6 1.11 3.254 2.259 4.512 3.45 2.607 2.472 4.16 7.17 4.348 10.533.153 2.771 0 21.057-.003 21.242l-.005 1.418 1.403-.166c.002 0 .13-.015.311-.015.277 0 .468.034.584.067.074 2.08-1.2 11.338-1.727 13.332-1.726.994-2.7 1.72-2.906 2.7l-.016.076c-1.914 9.212-5.23 12.62-6.2 13.444-4.148 3.525-8.507 5.565-18.517 5.565-10.375 0-17.419-2.48-20.371-7.174-2.124-3.376-2.946-7.461-3.49-10.165-.312-1.544-.5-2.476-.852-3.061-.333-.553-.84-1.117-1.375-1.714-.806-.898-1.72-1.917-2-2.857-.428-1.445-.598-6.596-.663-8.535a132.21 132.21 0 0 0-.032-.925c.198-.242.996-.605 1.679-.757l1.007-.219-.025-1.033c-.004-.15-.355-14.943-.511-18.947-.083-2.102.598-5.884 2.788-9.623 2.896-4.946 7.58-8.647 13.921-11.002C84.07 3.193 92.34 1.963 96.57 1.565"/>
        <path fill="#DDE6F2" d="M82.614 45.866c0 6.791-5.484 12.297-12.25 12.297-6.764 0-12.249-5.506-12.249-12.297 0-6.792 5.485-12.298 12.25-12.298s12.25 5.506 12.25 12.298"/>
        <g>
            <g transform="translate(57.972 33.097)">
                <mask id="b" fill="#fff">
                    <use xlink:href="#a"/>
                </mask>
                <path fill="#FFF" d="M-1.439 19.99l-5.72-5.72 21.32-21.321 5.72 5.72z" mask="url(#b)"/>
            </g>
            <g transform="translate(61.409 35.245)">
                <mask id="d" fill="#fff">
                    <use xlink:href="#c"/>
                </mask>
                <path fill="#FFF" d="M3.014 24.26l-2.6-2.6L21.734.34l2.6 2.6z" mask="url(#d)"/>
            </g>
        </g>
        <g fill="#DDE6F2">
            <path d="M70.674 33.216c-6.799 0-12.31 5.521-12.31 12.332 0 6.81 5.511 12.332 12.31 12.332s12.31-5.521 12.31-12.332c0-6.811-5.511-12.332-12.31-12.332m0 1.36c6.04 0 10.953 4.922 10.953 10.972S76.714 56.52 70.674 56.52c-6.04 0-10.953-4.922-10.953-10.972s4.914-10.972 10.953-10.972M111.328 45.548c0 6.81-5.512 12.332-12.31 12.332-6.8 0-12.31-5.521-12.31-12.332 0-6.81 5.51-12.333 12.31-12.333 6.798 0 12.31 5.522 12.31 12.333"/>
        </g>
        <g>
            <g transform="translate(85.76 33.097)">
                <mask id="f" fill="#fff">
                    <use xlink:href="#e"/>
                </mask>
                <path fill="#FFF" d="M-1.048 19.99l-5.732-5.72L14.582-7.051l5.731 5.72z" mask="url(#f)"/>
            </g>
            <g transform="translate(89.634 35.245)">
                <mask id="h" fill="#fff">
                    <use xlink:href="#g"/>
                </mask>
                <path fill="#FFF" d="M2.983 24.26l-2.605-2.6L21.739.34l2.606 2.6z" mask="url(#h)"/>
            </g>
        </g>
        <g>
            <path fill="#DDE6F2" d="M98.623 33.216c-6.776 0-12.27 5.52-12.27 12.33 0 6.81 5.494 12.33 12.27 12.33s12.27-5.52 12.27-12.33c0-6.81-5.494-12.33-12.27-12.33m0 1.36c6.02 0 10.916 4.92 10.916 10.97 0 6.05-4.897 10.971-10.916 10.971-6.02 0-10.917-4.921-10.917-10.97 0-6.05 4.897-10.971 10.917-10.971"/>
            <path fill="#FFF" d="M84.063 152.85c-28.385 0-51.478-23.208-51.478-51.734 0-28.526 23.093-51.734 51.478-51.734s51.477 23.208 51.477 51.734c0 28.526-23.092 51.734-51.477 51.734"/>
            <path fill="#DDE6F2" d="M84.063 48.737c-13.922 0-27.01 5.448-36.854 15.342-9.845 9.892-15.266 23.046-15.266 37.037 0 13.99 5.421 27.144 15.266 37.038 9.844 9.893 22.932 15.34 36.854 15.34s27.01-5.447 36.854-15.34c9.844-9.894 15.265-23.047 15.265-37.038 0-13.991-5.42-27.145-15.265-37.037-9.844-9.894-22.932-15.342-36.854-15.342m0 1.29c28.076 0 50.836 22.873 50.836 51.089 0 28.216-22.76 51.089-50.836 51.089-28.076 0-50.836-22.873-50.836-51.09 0-28.215 22.76-51.088 50.836-51.088"/>
            <path fill="#F0F5F9" d="M125.953 117.09c-.321.123-.54.419-.74.7l-2.86 4.002c-.386.54-.775 1.085-1.069 1.682a6.176 6.176 0 0 0-.62 2.333c-.018.267-.009.56.164.764.253.302.737.261 1.09.086.583-.288.994-.843 1.289-1.425.295-.583.498-1.21.798-1.79.529-1.019 1.34-1.858 1.98-2.812.433-.646.795-1.383.89-2.165.07-.575-.022-1.72-.922-1.375M87.379 62.016c-.403 0-.816.008-1.192.155a.78.78 0 0 0-.361.254c-.158.222-.11.543.049.764.16.221.406.36.654.472.646.293 1.376.452 2.069.3.693-.153 1.332-.66 1.512-1.348.024-.092.038-.193.002-.28-.229-.545-2.268-.318-2.733-.317M96.215 67.18c-.31-.156-.69-.11-1.001.045-.31.156-.56.41-.787.671-.474.547-.882 1.164-1.09 1.857-.206.694-.196 1.471.133 2.115.084.164.19.32.334.434.155.123.346.19.536.245.94.275 1.932.307 2.912.317.65.007 1.335-.004 1.901-.326.183-.104.355-.247.434-.443.116-.29-.003-.632-.212-.862-.21-.23-.496-.373-.775-.512-.278-.139-.564-.284-.77-.517-.405-.457-.413-1.105-.659-1.64-.112-.245-.271-.438-.383-.687-.125-.281-.289-.555-.573-.698"/>
            <path fill="#F0F5F9" d="M113.455 59.335a5.919 5.919 0 0 0-1.068.851c-.542.55-1.032 1.24-1.779 1.428-1.14.288-2.15-.711-3.036-1.487-1.123-.983-2.685-1.753-4.072-1.207-.858.337-1.467 1.118-1.911 1.93-.445.811-.77 1.691-1.297 2.453-.307.445-.681.848-.926 1.332a2.948 2.948 0 0 0 .113 2.815 2.919 2.919 0 0 0 2.45 1.37c.601-.002 1.41-.073 1.594.502a.762.762 0 0 1-.035.506c-.296.75-1.257.92-1.914 1.383-1.028.726-1.306 2.202-2.317 2.951-.421.313-.942.475-1.348.808-.158.13-.304.3-.319.504-.027.374.374.639.464 1.002.141.568-.508 1.01-1.076 1.135-.96.21-2.037.092-2.847.652-1.127.78-1.11 2.597-.244 3.662.866 1.064 2.294 1.496 3.658 1.61.764.066 1.551.046 2.27-.22.72-.268 1.365-.812 1.61-1.542.249-.742.107-1.669.672-2.208.21-.2.49-.31.771-.375 1.432-.331 2.876.383 4.174 1.075l3.53 1.883c.636.339 1.298.56 1.946.876.29.141.61.286.923.211.47-.112.696-.665.712-1.152.017-.486-.1-.981.014-1.454.222-.921 1.249-1.51 1.368-2.45.059-.458-.081-1.016.27-1.313.16-.134.379-.167.586-.182 1.952-.136 3.933.995 4.817 2.749.098.195.183.429.088.625-.096.194-.332.27-.544.309-1.44.265-3.1-.152-4.258.746-.476.37-.8 1.03-.563 1.585.233.547.888.766 1.477.83.59.065 1.22.048 1.724.36.874.54.957 1.767.908 2.798-.01.19-.021.387-.105.559-.142.29-.458.449-.767.537a3.05 3.05 0 0 1-2.52-.409c-.563-.385-1.018-.971-1.676-1.149-1.431-.386-2.753 1.367-4.21 1.088-.496-.095-.913-.417-1.353-.667-1.482-.847-3.267-.908-4.972-.928-1.289-.016-2.583-.02-3.86.164a13.319 13.319 0 0 0-7.649 3.939c-2.006 2.095-3.191 4.992-3.478 7.886-.288 2.894.578 5.953 2.593 8.04.315.326.662.632 1.075.82.357.162.75.23 1.139.276 2.244.27 4.562-.1 6.612-1.058 1.291-.604 2.622-1.46 4.02-1.193 1.056.2 1.944 1.098 2.139 2.16.165.903-.135 1.833-.05 2.748.17 1.841 1.861 3.377 1.682 5.218-.109 1.123-.898 2.047-1.314 3.095-1.067 2.682.406 5.671.372 8.56-.016 1.325-.353 2.625-.484 3.944-.03.312-.047.64.085.924.294.631 1.151.735 1.833.608 2.02-.377 3.62-1.927 4.85-3.58 1.23-1.653 2.241-3.497 3.744-4.905 1.612-1.51 3.763-2.493 4.94-4.367 1.717-2.733.808-6.44 2.172-9.369 1.13-2.422 3.735-4.137 4.11-6.785.046-.321.033-.7-.22-.901-.164-.13-.385-.148-.593-.153a7.696 7.696 0 0 0-2.333.302c-.642-.454-.946-1.324-1.187-2.074a81.407 81.407 0 0 0-3.524-9.08c-.074-.16-.15-.33-.135-.506.015-.176.157-.354.333-.34a.42.42 0 0 1 .232.117c.17.15.293.347.409.543 1.659 2.834 2.262 6.183 3.846 9.06.21.382.512.8.945.802.369.003.66-.3.901-.58l2.748-3.171c.519-.6 1.052-1.224 1.275-1.986.242-.827.088-1.71.015-2.57-.012-.141-.012-.307.097-.397.083-.068.2-.069.307-.065l.809.024 2.006 5.57c-1.115-15.745-9.33-29.517-21.444-38.102M84.063 50.027c-17.071 0-32.176 8.456-41.395 21.428-.104.425-.185.857-.243 1.287-.204 1.496-.207 3.015-.447 4.505-.376 2.327-.788 5.076-2.71 6.428-.898.632-1.328 1.78-1.347 2.881-.019 1.102.317 2.177.683 3.215.39 1.107.818 2.2 1.283 3.276.798 1.844 1.338 3.712 1.306 5.722-.03 1.996 1.36 3.932 3.255 4.53.57.18 1.171.248 1.736.445 1.475.514 2.517 1.822 3.837 2.659 1.373.87 3.178 1.358 3.852 2.84.468 1.027.023 2.147-.23 3.248-.267 1.165-.776 2.261-1.08 3.417-.305 1.156-.387 2.443.172 3.498.467.882 1.326 1.5 1.814 2.371.593 1.061.589 2.413 1.323 3.381.993 1.309 2.914 1.422 4.243 2.383 1.073.776 1.682 2.06 1.965 3.358.282 1.297.278 2.637.375 3.962.177 2.415.76 4.938 2.427 6.687.715.75 1.594 1.32 2.36 2.015.878.798 1.603 1.756 2.507 2.524.904.769 2.068 1.35 3.24 1.177-.229-1.192-1.342-1.988-1.905-3.062-.983-1.872-.13-4.185 1.009-5.965 1.14-1.78 2.604-3.473 2.93-5.565.076-.485.092-1 .336-1.425.155-.27.39-.484.635-.674 1.044-.81 2.404-1.348 2.98-2.54.401-.829.33-1.812.64-2.679.29-.808.89-1.464 1.26-2.238.372-.774.453-1.926-.197-2.484l-.616.28c-2.431-2.88-7.188-2.379-10.029-4.85-1.371-1.193-2.126-2.938-3.283-4.34a9.377 9.377 0 0 0-5.077-3.144c-1.293-.298-2.636-.316-3.941-.553-1.307-.237-2.64-.74-3.472-1.778-.574-.717-.87-1.637-1.49-2.313-1.537-1.674-4.327-1.222-6.271-2.393-.479-.289-.913-.696-1.096-1.225-.134-.387-.125-.806-.106-1.214.081-1.831.485-3.923 2.07-4.83 1.133-.646 2.527-.479 3.822-.61 2.423-.243 4.703-1.66 6.004-3.729 1.013-1.61 1.501-3.626 2.985-4.812 1.28-1.023 3.06-1.212 4.375-2.187.453-.337.845-.762 1.34-1.032.89-.486 1.965-.4 2.978-.435 1.013-.035 2.15-.29 2.672-1.163.237-.395.311-.868.327-1.329a6.05 6.05 0 0 0-.783-3.187c-.4-.702-.936-1.314-1.369-1.996-.793-1.247-1.138-2.764-1.438-4.213a4.72 4.72 0 0 1 .977-3.912c.23-.276.497-.533.634-.866.3-.728-.116-1.557-.638-2.145-.52-.589-1.172-1.094-1.48-1.818-.587-1.378.314-2.972 1.478-3.909 1.124-.905 2.588-1.472 4.009-1.239 1.421.234 2.722 1.405 2.835 2.847.125 1.603-1.116 2.973-1.481 4.538-.54 2.309 1.24 4.885 3.58 5.187.413.053.853.04 1.218-.163.357-.198.598-.552.801-.907.763-1.335 1.195-2.891 2.251-4.007.755-.796 1.762-1.294 2.654-1.93.893-.638 1.728-1.518 1.84-2.612.156-1.542-1.12-2.793-1.901-4.128-.784-1.34-1.088-2.948-.883-4.487l-.11-.001"/>
            <path fill="#398EFF" d="M47.509 70.132a3.217 3.217 0 0 1-3.21 3.225 3.217 3.217 0 0 1-3.208-3.225 3.217 3.217 0 0 1 3.209-3.225 3.217 3.217 0 0 1 3.209 3.225"/>
            <path fill="#398EFF" fill-opacity=".4" d="M68.902 83.246c0 3.325-2.682 6.02-5.99 6.02-3.309 0-5.99-2.695-5.99-6.02 0-3.324 2.681-6.02 5.99-6.02 3.308 0 5.99 2.696 5.99 6.02"/>
            <path fill="#398EFF" fill-opacity=".3" d="M118.533 99.586c0 3.325-2.681 6.02-5.99 6.02-3.308 0-5.99-2.695-5.99-6.02 0-3.325 2.682-6.02 5.99-6.02 3.309 0 5.99 2.695 5.99 6.02M76.603 133.985c0 2.375-1.915 4.3-4.279 4.3-2.362 0-4.278-1.925-4.278-4.3 0-2.374 1.916-4.3 4.278-4.3 2.364 0 4.28 1.926 4.28 4.3"/>
            <path fill="#398EFF" d="M65.479 83.246c0 1.425-1.15 2.58-2.567 2.58a2.574 2.574 0 0 1-2.568-2.58c0-1.424 1.15-2.58 2.568-2.58a2.574 2.574 0 0 1 2.567 2.58M115.11 99.586c0 1.425-1.149 2.58-2.567 2.58a2.574 2.574 0 0 1-2.567-2.58c0-1.424 1.15-2.58 2.567-2.58a2.574 2.574 0 0 1 2.568 2.58M46.653 88.406c0 1.425-1.15 2.58-2.567 2.58a2.574 2.574 0 0 1-2.568-2.58c0-1.424 1.15-2.58 2.568-2.58a2.574 2.574 0 0 1 2.567 2.58M62.912 109.046c0 .95-.767 1.72-1.712 1.72s-1.711-.77-1.711-1.72.766-1.72 1.711-1.72c.945 0 1.712.77 1.712 1.72M72.324 124.956c0 .95-.766 1.72-1.711 1.72-.945 0-1.711-.77-1.711-1.72s.766-1.72 1.711-1.72c.945 0 1.711.77 1.711 1.72M74.036 133.985c0 .95-.766 1.72-1.712 1.72-.945 0-1.711-.77-1.711-1.72s.766-1.72 1.711-1.72c.946 0 1.712.77 1.712 1.72M98.424 88.406c0 .95-.766 1.72-1.711 1.72-.946 0-1.712-.77-1.712-1.72s.766-1.72 1.712-1.72c.945 0 1.711.77 1.711 1.72"/>
            <path fill="#FFBC00" d="M67.19 63.897c0 .95-.766 1.72-1.711 1.72-.945 0-1.712-.77-1.712-1.72s.767-1.72 1.712-1.72 1.711.77 1.711 1.72M130.941 84.106c0 .95-.766 1.72-1.711 1.72-.945 0-1.712-.77-1.712-1.72s.767-1.72 1.712-1.72 1.711.77 1.711 1.72M50.637 120.693a3.538 3.538 0 0 0-1.96-.57c-1.697 0-3.072 1.107-3.072 2.47 0 1.365 1.375 1.812 3.072 1.812h.006c-.004-.065-.013-.127-.013-.193 0-1.42.769-2.688 1.967-3.519M62.308 122.594c0-1.364-1.376-2.47-3.073-2.47-.742 0-1.423.212-1.955.564 1.203.831 1.975 2.101 1.975 3.524 0 .066-.01.128-.012.193 1.693-.001 3.065-.449 3.065-1.811M56.176 117.8c0-1.417-.803-2.567-2.213-2.567-1.411 0-2.214 1.15-2.214 2.567 0 1.418.803 2.568 2.214 2.568 1.41 0 2.213-1.15 2.213-2.568M57.893 124.212c0-1.745-1.76-3.16-3.93-3.16-2.171 0-3.93 1.415-3.93 3.16s1.759 2.317 3.93 2.317c2.17 0 3.93-.572 3.93-2.317M57.427 118.822c.262.463.71.767 1.32.767 1.01 0 1.583-.822 1.583-1.836 0-1.014-.574-1.835-1.583-1.835a1.46 1.46 0 0 0-1.335.79 2.192 2.192 0 0 0-.248 1.045c0 .4.093.768.263 1.07M50.51 116.722a1.462 1.462 0 0 0-1.345-.805c-1.009 0-1.583.823-1.583 1.836 0 1.014.574 1.836 1.583 1.836.617 0 1.07-.31 1.33-.782.164-.299.253-.66.253-1.054 0-.382-.082-.737-.238-1.03"/>
            <path fill="#398EFF" d="M101.98 68.664a3.538 3.538 0 0 0-1.96-.57c-1.697 0-3.072 1.107-3.072 2.47 0 1.365 1.375 1.812 3.072 1.812h.006c-.004-.065-.013-.127-.013-.193 0-1.42.77-2.688 1.968-3.519M113.65 70.565c0-1.364-1.375-2.47-3.071-2.47-.743 0-1.424.212-1.956.564 1.204.831 1.975 2.101 1.975 3.524 0 .066-.009.128-.012.193 1.693-.001 3.065-.449 3.065-1.811M107.52 65.771c0-1.417-.803-2.567-2.214-2.567s-2.214 1.15-2.214 2.567c0 1.418.803 2.568 2.214 2.568 1.41 0 2.214-1.15 2.214-2.568M109.236 72.183c0-1.745-1.76-3.16-3.93-3.16s-3.93 1.415-3.93 3.16 1.76 2.317 3.93 2.317 3.93-.572 3.93-2.317M108.77 66.793c.262.463.71.767 1.32.767 1.01 0 1.584-.822 1.584-1.836 0-1.014-.575-1.835-1.584-1.835a1.46 1.46 0 0 0-1.335.79 2.192 2.192 0 0 0-.248 1.045c0 .4.093.768.264 1.07M101.853 64.693a1.462 1.462 0 0 0-1.345-.805c-1.009 0-1.583.823-1.583 1.836 0 1.014.574 1.836 1.583 1.836.617 0 1.07-.31 1.33-.782.164-.299.253-.66.253-1.054 0-.382-.082-.737-.238-1.03M101.98 111.663a3.538 3.538 0 0 0-1.96-.57c-1.697 0-3.072 1.107-3.072 2.47 0 1.365 1.375 1.812 3.072 1.812h.006c-.004-.065-.013-.127-.013-.193 0-1.42.77-2.688 1.968-3.519M113.65 113.564c0-1.364-1.375-2.47-3.071-2.47-.743 0-1.424.212-1.956.565 1.204.83 1.975 2.1 1.975 3.523 0 .066-.009.129-.012.193 1.693-.001 3.065-.449 3.065-1.811M107.52 108.77c0-1.417-.803-2.567-2.214-2.567s-2.214 1.15-2.214 2.567c0 1.418.803 2.568 2.214 2.568 1.41 0 2.214-1.15 2.214-2.568M109.236 115.182c0-1.745-1.76-3.16-3.93-3.16s-3.93 1.415-3.93 3.16 1.76 2.317 3.93 2.317 3.93-.572 3.93-2.317M108.77 109.792c.262.463.71.767 1.32.767 1.01 0 1.584-.822 1.584-1.835 0-1.014-.575-1.836-1.584-1.836a1.46 1.46 0 0 0-1.335.79 2.192 2.192 0 0 0-.248 1.046c0 .4.093.767.264 1.068M101.853 107.692a1.462 1.462 0 0 0-1.345-.804c-1.009 0-1.583.822-1.583 1.835 0 1.014.574 1.836 1.583 1.836.617 0 1.07-.31 1.33-.781.164-.3.253-.661.253-1.055 0-.382-.082-.736-.238-1.03"/>
            <path fill="#F0F5F9" d="M5.25 85.85l.786-2.514c.702 1.771 1.625 4.285 1.14 5.333a.632.632 0 0 1-.323.33L5.25 85.85zm1.39-4.442l1.997-6.384c.11-.352.051-.72-.162-1.012a1.154 1.154 0 0 0-.927-.474c-.316 0-.611.133-.83.373l-.734.805a1.137 1.137 0 0 0-.27 1.03l-.163 3.407-.007-.015-.118 2.61-.195 4.066-4.17-8.183a4.024 4.024 0 0 1 .463-4.363l16.149-19.866a38.308 38.308 0 0 1 15.95-3.505c2.369 0 4.75.223 7.08.665l2.075.393 6.201 5.713a6.093 6.093 0 0 1-4.17 1.642 6.066 6.066 0 0 1-2.598-.58l-2.73-1.281a1.134 1.134 0 0 0-1.105.081l-9.352 6.202c-.399.265-.59.756-.477 1.222l3.038 12.527c.064.262.218.494.435.653l8.529 6.238a4.597 4.597 0 0 1 1.866 3.335 4.607 4.607 0 0 1-1.23 3.534l-13.41-8.299-4.3-8.683a1.108 1.108 0 0 0-1.007-.634c-.327 0-.639.138-.856.378a1.127 1.127 0 0 0-.282.872l.836 8.805c.029.304.173.578.407.772l5.538 4.588a6.144 6.144 0 0 1 1.841 6.873l-12.497-7.004-1.958-12.582a1.117 1.117 0 0 0-1.12-.965c-.606 0-1.083.44-1.132 1.048l-.475 5.857c-.02.234.033.465.15.668l4.898 8.428c.574.988.722 2.138.418 3.24a4.16 4.16 0 0 1-1.93 2.509L6.64 81.408z"/>
            <path fill="#DDE6F2" d="M33.622 49.27a38.665 38.665 0 0 0-16.234 3.573.516.516 0 0 0-.182.142L1.04 72.87a4.654 4.654 0 0 0-.533 5.046l5.838 11.458a.51.51 0 0 0 .614.254c2.273-.752-.05-5.696-.906-7.942l.002-.04a.514.514 0 0 1-.027-.376l.054-.17.26-5.431a.515.515 0 0 1 .101-.53l.734-.805a.493.493 0 0 1 .37-.17c.314 0 .61.3.495.67l-1.96 6.266-.027.547c.01.02.022.04.035.06l9.754 14.837a.51.51 0 0 0 .672.167c2.371-1.304 3.204-4.318 1.84-6.665l-.788-1.357-.465-.26a.513.513 0 0 1-.256-.37l-.13-.834-3.258-5.607a.516.516 0 0 1-.068-.3l.476-5.858a.498.498 0 0 1 .51-.472c.23 0 .459.143.504.434l1.836 11.803.85 1.464 12.195 6.834a.51.51 0 0 0 .724-.26 6.789 6.789 0 0 0-1.979-7.707l-5.537-4.588a.518.518 0 0 1-.184-.348l-.835-8.805a.508.508 0 0 1 .517-.564c.175 0 .351.088.449.286l4.315 8.712a.517.517 0 0 0 .19.209l13.512 8.363a.509.509 0 0 0 .633-.077c2.222-2.276 1.913-6.004-.651-7.88l-8.53-6.238a.512.512 0 0 1-.195-.294l-3.038-12.527a.514.514 0 0 1 .214-.55l9.353-6.203a.51.51 0 0 1 .498-.037l2.73 1.282a6.741 6.741 0 0 0 7.551-1.26.515.515 0 0 0-.01-.75l-6.313-5.817a.512.512 0 0 0-.251-.126l-2.106-.399a38.616 38.616 0 0 0-7.197-.676m0 1.253c2.33 0 4.674.22 6.966.655l1.9.36 5.54 5.104a5.47 5.47 0 0 1-3.22 1.04 5.451 5.451 0 0 1-2.333-.52l-2.73-1.281a1.748 1.748 0 0 0-1.713.126l-9.351 6.202a1.775 1.775 0 0 0-.74 1.894l3.038 12.527c.099.406.338.765.674 1.01l8.529 6.238a3.97 3.97 0 0 1 1.611 2.88c.08.957-.188 1.9-.742 2.665l-12.797-7.92-4.22-8.524c-.3-.605-.9-.98-1.566-.98-.502 0-.982.212-1.317.582-.333.368-.49.849-.442 1.354l.836 8.805c.045.47.269.895.632 1.196l5.537 4.588a5.512 5.512 0 0 1 1.864 5.461l-11.105-6.223-.56-.963-1.8-11.569a1.752 1.752 0 0 0-1.735-1.495c-.925 0-1.68.698-1.754 1.624l-.476 5.857c-.03.363.052.721.234 1.035l3.14 5.403.093.6c.084.54.405 1.004.88 1.27l.168.094.616 1.062c.489.84.615 1.818.356 2.755a3.545 3.545 0 0 1-1.159 1.799L7.323 81.31l1.908-6.1a1.75 1.75 0 0 0-.253-1.57 1.777 1.777 0 0 0-1.43-.73 1.73 1.73 0 0 0-1.29.577l-.734.804a1.763 1.763 0 0 0-.436 1.503l-.244 5.084-.005.016a1.769 1.769 0 0 0-.04.913l-.004.081.094.246c.102.269.225.575.358.908.418 1.041.938 2.338 1.225 3.491.055.221.097.418.129.593l-4.984-9.782a3.396 3.396 0 0 1 .39-3.681l16.057-19.753a37.695 37.695 0 0 1 15.558-3.388"/>
            <path fill="#F0F5F9" d="M166.344 90.31a.592.592 0 0 1-.29-.263c-.534-.918.1-3.375.581-5.045l.932 2.219-1.223 3.09zm-21.304 7.673a5.812 5.812 0 0 1 1.138-6.604l4.83-4.842c.21-.21.327-.491.327-.79l.004-8.41c0-.323-.127-.616-.36-.827a1.124 1.124 0 0 0-.755-.289c-.46 0-.864.281-1.03.716l-3.29 8.599-11.924 9.046a4.346 4.346 0 0 1-1.452-3.195 4.343 4.343 0 0 1 1.458-3.302l7.515-6.675c.196-.174.325-.413.363-.674l1.757-12.133a1.118 1.118 0 0 0-.578-1.145l-9.406-5.026a1.106 1.106 0 0 0-1.083.023l-2.47 1.46a5.79 5.79 0 0 1-2.942.805 5.814 5.814 0 0 1-3.498-1.177l5.331-5.937 1.92-.557a36.132 36.132 0 0 1 22.028.606l17.057 17.341a3.795 3.795 0 0 1 .82 4.055l-3.173 8.018-1.34-9.37a1.111 1.111 0 0 0-.357-.974l-.767-.695a1.1 1.1 0 0 0-.74-.291c-.37 0-.727.194-.934.507-.205.313-.239.694-.092 1.045l2.456 5.85-7.815 14.75a3.918 3.918 0 0 1-2.009-2.17 3.946 3.946 0 0 1 .105-3.08l3.882-8.42c.097-.208.126-.438.086-.665l-.974-5.5a1.096 1.096 0 0 0-1.09-.92c-.597 0-1.074.45-1.11 1.047l-.727 12.072-11.161 7.728z"/>
            <path fill="#DDE6F2" d="M140.963 54.991a36.74 36.74 0 0 0-10.241 1.456l-1.958.568a.488.488 0 0 0-.226.142l-5.456 6.076a.49.49 0 0 0 .058.71 6.406 6.406 0 0 0 7.26.511l2.47-1.459a.485.485 0 0 1 .474-.01l9.407 5.026a.489.489 0 0 1 .253.502l-1.756 12.132a.49.49 0 0 1-.16.295l-7.515 6.676c-2.26 2.007-2.219 5.563.088 7.517a.483.483 0 0 0 .606.016l12.043-9.136a.493.493 0 0 0 .161-.215l3.305-8.636a.469.469 0 0 1 .448-.314.48.48 0 0 1 .492.49l-.005 8.41c0 .13-.051.253-.143.345l-4.83 4.843a6.457 6.457 0 0 0-1.185 7.474.484.484 0 0 0 .709.18l10.932-7.569.674-1.462.683-11.338a.474.474 0 0 1 .487-.459.47.47 0 0 1 .476.403l.974 5.501c.017.099.005.2-.038.291l-2.582 5.602-.048.8a.491.491 0 0 1-.21.374l-.416.288-.625 1.356c-1.081 2.344-.024 5.122 2.338 6.143a.485.485 0 0 0 .62-.22l7.907-14.924a.444.444 0 0 0 .026-.058l-.074-.52-2.414-5.75c-.15-.358.136-.682.452-.682.11 0 .222.038.321.129l.767.695a.49.49 0 0 1 .143.493l.73 5.114.068.16c.048.115.05.245.007.36l.005.036c-.608 2.202-2.364 7.092-.146 7.599a.485.485 0 0 0 .56-.296l4.5-11.373a4.423 4.423 0 0 0-.956-4.727l-17.079-17.364a.486.486 0 0 0-.185-.118 36.762 36.762 0 0 0-12.196-2.083m0 1.254c3.964 0 7.872.657 11.619 1.954l16.954 17.238a3.166 3.166 0 0 1 .684 3.383l-3.673 9.281.028-.187c.174-1.096.54-2.338.834-3.335.097-.327.186-.627.258-.89l.07-.254-.01-.078c.036-.299-.006-.604-.125-.888l-.004-.01-.683-4.773a1.736 1.736 0 0 0-.567-1.427l-.767-.695a1.722 1.722 0 0 0-2.61.336 1.738 1.738 0 0 0-.148 1.634l2.34 5.574-7.373 13.918a3.304 3.304 0 0 1-1.179-1.53 3.325 3.325 0 0 1 .089-2.592l.482-1.045.136-.094c.442-.306.714-.79.746-1.33l.035-.564 2.483-5.387c.15-.326.196-.684.134-1.038l-.973-5.5a1.712 1.712 0 0 0-1.705-1.437 1.72 1.72 0 0 0-1.732 1.636l-.669 11.102-.432.936-9.873 6.836a5.184 5.184 0 0 1 1.286-5.196l4.831-4.843c.328-.328.51-.766.51-1.232l.004-8.41c0-.503-.2-.962-.566-1.293-.321-.29-.738-.45-1.173-.45-.72 0-1.353.438-1.612 1.117l-3.227 8.432-11.345 8.607a3.72 3.72 0 0 1-.888-2.372 3.717 3.717 0 0 1 1.247-2.824l7.515-6.676c.307-.272.509-.647.568-1.054l1.756-12.132a1.748 1.748 0 0 0-.901-1.788l-9.407-5.027a1.736 1.736 0 0 0-1.693.037l-2.47 1.459a5.163 5.163 0 0 1-5.173.046l4.725-5.261 1.75-.507a35.495 35.495 0 0 1 9.894-1.407"/>
            <path fill="#398EFF" d="M53.535 65.329c1.41 0 2.213-1.15 2.213-2.568 0-1.418-.803-2.567-2.213-2.567-1.411 0-2.214 1.15-2.214 2.567 0 1.418.803 2.568 2.214 2.568M53.535 66.013c-2.17 0-3.93 1.415-3.93 3.16s1.76 2.317 3.93 2.317 3.93-.572 3.93-2.317-1.76-3.16-3.93-3.16"/>
        </g>
    </g>
</svg>
