<svg xmlns="http://www.w3.org/2000/svg" xmlns:xlink="http://www.w3.org/1999/xlink" width="165" height="133" viewBox="0 0 165 133">
    <defs>
        <path id="a" d="M153.704 0v7.389H.024V0h153.68z"/>
    </defs>
    <g fill="none" fill-rule="evenodd">
        <path fill="#DDE6F2" d="M135.22 125.611H48.967c-2.047 0-3.721-1.662-3.721-3.694s1.674-3.695 3.721-3.695h86.253c2.047 0 3.722 1.663 3.722 3.695s-1.675 3.694-3.722 3.694"/>
        <g transform="translate(11.07 113.441)">
            <mask id="b" fill="#fff">
                <use xlink:href="#a"/>
            </mask>
            <path fill="#DDE6F2" d="M149.982 7.389H3.746C1.7 7.389.025 5.726.025 3.694.025 1.663 1.699 0 3.746 0h146.236c2.047 0 3.722 1.663 3.722 3.694 0 2.032-1.675 3.695-3.722 3.695" mask="url(#b)"/>
        </g>
        <path fill="#DDE6F2" d="M91.876 133H57.724c-2.047 0-3.722-1.662-3.722-3.694v-4.347c0-2.032 1.675-3.694 3.722-3.694h34.152c2.047 0 3.721 1.662 3.721 3.694v4.347c0 2.031-1.674 3.694-3.721 3.694"/>
        <path fill="#FFF" d="M41.378 95.982L25.042 112.2a4.377 4.377 0 0 1-6.156 0L2.455 95.887a4.165 4.165 0 0 1 0-5.922l16.431-16.311a4.376 4.376 0 0 1 6.156 0L41.378 89.87a4.3 4.3 0 0 1 0 6.112"/>
        <path stroke="#DDE6F2" stroke-linejoin="round" stroke-width="1.312" d="M41.378 95.982L25.042 112.2a4.377 4.377 0 0 1-6.156 0L2.455 95.887a4.165 4.165 0 0 1 0-5.922l16.431-16.311a4.376 4.376 0 0 1 6.156 0L41.378 89.87a4.3 4.3 0 0 1 0 6.112z"/>
        <path fill="#DDE6F2" d="M16.749 90.842l6.676-1.63c1.264-.309 2.407.825 2.096 2.081l-1.643 6.627c-.322 1.3-1.953 1.752-2.907.805l-5.033-4.996c-.954-.948-.5-2.566.811-2.887"/>
        <path fill="#FFF" d="M57.596 113.17H34.493c-2.404 0-4.352-1.935-4.352-4.322V85.78c0-2.312 1.888-4.186 4.217-4.186h23.238c2.404 0 4.353 1.934 4.353 4.321v22.934c0 2.387-1.949 4.322-4.353 4.322"/>
        <path stroke="#DDE6F2" stroke-linejoin="round" stroke-width="1.312" d="M57.596 113.17H34.493c-2.404 0-4.352-1.935-4.352-4.322V85.78c0-2.312 1.888-4.186 4.217-4.186h23.238c2.404 0 4.353 1.934 4.353 4.321v22.934c0 2.387-1.949 4.322-4.353 4.322z"/>
        <path fill="#FFF" d="M61.95 54.511v22.935c0 2.386-1.95 4.321-4.354 4.321H34.358c-2.33 0-4.217-1.874-4.217-4.187V54.51c0-2.386 1.948-4.32 4.353-4.32h23.102c2.404 0 4.354 1.934 4.354 4.32"/>
        <path stroke="#DDE6F2" stroke-linejoin="round" stroke-width="1.312" d="M61.95 54.511v22.935c0 2.386-1.95 4.321-4.354 4.321H34.358c-2.33 0-4.217-1.874-4.217-4.187V54.51c0-2.386 1.948-4.32 4.353-4.32h23.102c2.404 0 4.354 1.934 4.354 4.32z"/>
        <path fill="#DDE6F2" d="M40.873 68.166l3.56-5.839c.673-1.106 2.29-1.106 2.963 0l3.56 5.839c.698 1.146-.133 2.61-1.483 2.61h-7.118c-1.349 0-2.18-1.464-1.482-2.61M43.842 92.247l5.881 3.533a1.713 1.713 0 0 1 0 2.943l-5.881 3.532c-1.155.694-2.63-.13-2.63-1.47v-7.066c0-1.34 1.475-2.166 2.63-1.472"/>
        <path fill="#FFF" d="M154.444 113.17h-23.102c-2.404 0-4.353-1.935-4.353-4.322V85.78c0-2.312 1.888-4.186 4.217-4.186h23.238c2.404 0 4.353 1.934 4.353 4.321v22.934c0 2.387-1.949 4.322-4.353 4.322"/>
        <path stroke="#DDE6F2" stroke-linejoin="round" stroke-width="1.312" d="M154.444 113.17h-23.102c-2.404 0-4.353-1.935-4.353-4.322V85.78c0-2.312 1.888-4.186 4.217-4.186h23.238c2.404 0 4.353 1.934 4.353 4.321v22.934c0 2.387-1.949 4.322-4.353 4.322z"/>
        <path fill="#FFF" d="M154.444 81.767h-23.102c-2.404 0-4.353-1.935-4.353-4.321v-23.07c0-2.312 1.888-4.186 4.217-4.186h23.238c2.404 0 4.353 1.935 4.353 4.321v22.935c0 2.386-1.949 4.321-4.353 4.321"/>
        <path stroke="#DDE6F2" stroke-linejoin="round" stroke-width="1.312" d="M154.444 81.767h-23.102c-2.404 0-4.353-1.935-4.353-4.321v-23.07c0-2.312 1.888-4.186 4.217-4.186h23.238c2.404 0 4.353 1.935 4.353 4.321v22.935c0 2.386-1.949 4.321-4.353 4.321z"/>
        <path fill="#398EFF" d="M77.821 89.443H54.72c-2.404 0-4.353-1.935-4.353-4.321v-23.07c0-2.311 1.888-4.186 4.218-4.186H77.82c2.405 0 4.353 1.935 4.353 4.322v22.934c0 2.386-1.948 4.321-4.353 4.321"/>
        <path stroke="#398EFF" stroke-linejoin="round" stroke-width="1.312" d="M77.821 89.443H54.72c-2.404 0-4.353-1.935-4.353-4.321v-23.07c0-2.311 1.888-4.186 4.218-4.186H77.82c2.405 0 4.353 1.935 4.353 4.322v22.934c0 2.386-1.948 4.321-4.353 4.321z"/>
        <path fill="#398EFF" d="M77.821 121.195H54.72c-2.404 0-4.353-1.935-4.353-4.322V93.805c0-2.313 1.888-4.187 4.218-4.187H77.82c2.405 0 4.353 1.935 4.353 4.321v22.934c0 2.387-1.948 4.322-4.353 4.322"/>
        <path stroke="#398EFF" stroke-linejoin="round" stroke-width="1.312" d="M77.821 121.195H54.72c-2.404 0-4.353-1.935-4.353-4.322V93.805c0-2.313 1.888-4.187 4.218-4.187H77.82c2.405 0 4.353 1.935 4.353 4.321v22.934c0 2.387-1.948 4.322-4.353 4.322z"/>
        <path fill="#FFF" d="M128.259 121.195H73.347c-2.404 0-4.353-1.935-4.353-4.322V93.805c0-2.313 1.888-4.187 4.218-4.187h55.047c2.404 0 4.353 1.935 4.353 4.321v22.934c0 2.387-1.949 4.322-4.353 4.322"/>
        <path stroke="#398EFF" stroke-linejoin="round" stroke-width="1.312" d="M128.259 121.195H73.347c-2.404 0-4.353-1.935-4.353-4.322V93.805c0-2.313 1.888-4.187 4.218-4.187h55.047c2.404 0 4.353 1.935 4.353 4.321v22.934c0 2.387-1.949 4.322-4.353 4.322z"/>
        <path fill="#FFF" d="M96.45 89.443H73.347c-2.404 0-4.353-1.935-4.353-4.321v-23.07c0-2.311 1.888-4.186 4.218-4.186H96.45c2.404 0 4.353 1.935 4.353 4.322v22.934c0 2.386-1.949 4.321-4.353 4.321"/>
        <path stroke="#398EFF" stroke-linejoin="round" stroke-width="1.312" d="M96.45 89.443H73.347c-2.404 0-4.353-1.935-4.353-4.321v-23.07c0-2.311 1.888-4.186 4.218-4.186H96.45c2.404 0 4.353 1.935 4.353 4.322v22.934c0 2.386-1.949 4.321-4.353 4.321z"/>
        <path fill="#398EFF" d="M72.901 57.343H49.798c-2.404 0-4.353-1.935-4.353-4.322V29.953c0-2.313 1.889-4.187 4.218-4.187h23.238c2.404 0 4.353 1.934 4.353 4.321v22.934c0 2.387-1.949 4.322-4.353 4.322"/>
        <path stroke="#398EFF" stroke-linejoin="round" stroke-width="1.312" d="M72.901 57.343H49.798c-2.404 0-4.353-1.935-4.353-4.322V29.953c0-2.313 1.889-4.187 4.218-4.187h23.238c2.404 0 4.353 1.934 4.353 4.321v22.934c0 2.387-1.949 4.322-4.353 4.322z"/>
        <path fill="#FFF" d="M80.633 57.343H57.531c-2.405 0-4.353-1.935-4.353-4.322V29.953c0-2.313 1.888-4.187 4.218-4.187h23.237c2.404 0 4.354 1.934 4.354 4.321v22.934c0 2.387-1.95 4.322-4.354 4.322"/>
        <path stroke="#398EFF" stroke-linejoin="round" stroke-width="1.312" d="M80.633 57.343H57.531c-2.405 0-4.353-1.935-4.353-4.322V29.953c0-2.313 1.888-4.187 4.218-4.187h23.237c2.404 0 4.354 1.934 4.354 4.321v22.934c0 2.387-1.95 4.322-4.354 4.322z"/>
        <path fill="#FFF" d="M87.311 128.87H64.21c-2.404 0-4.353-1.934-4.353-4.32v-23.07c0-2.312 1.888-4.186 4.217-4.186h23.238c2.405 0 4.354 1.935 4.354 4.321v22.935c0 2.386-1.95 4.32-4.354 4.32"/>
        <path stroke="#398EFF" stroke-linejoin="round" stroke-width="1.312" d="M87.311 128.87H64.21c-2.404 0-4.353-1.934-4.353-4.32v-23.07c0-2.312 1.888-4.186 4.217-4.186h23.238c2.405 0 4.354 1.935 4.354 4.321v22.935c0 2.386-1.95 4.32-4.354 4.32z"/>
        <path stroke="#FFBC00" stroke-linejoin="round" stroke-width="6.124" d="M147.902 63.646V43.364l-20.737-8.396-20.738 8.396v20.282l20.738 8.395z"/>
        <path fill="#FFF" d="M138.628 83.86h-23.103c-2.404 0-4.353-1.934-4.353-4.32V56.47c0-2.312 1.888-4.186 4.218-4.186h23.238c2.404 0 4.353 1.935 4.353 4.321V79.54c0 2.387-1.95 4.322-4.353 4.322"/>
        <path stroke="#398EFF" stroke-linejoin="round" stroke-width="1.312" d="M138.628 83.86h-23.103c-2.404 0-4.353-1.934-4.353-4.32V56.47c0-2.312 1.888-4.186 4.218-4.186h23.238c2.404 0 4.353 1.935 4.353 4.321V79.54c0 2.387-1.95 4.322-4.353 4.322z"/>
        <path fill="#398EFF" d="M126.26 62.924l6.308 3.79a1.837 1.837 0 0 1 0 3.155l-6.308 3.79c-1.239.744-2.82-.142-2.82-1.578V64.5c0-1.436 1.581-2.322 2.82-1.577"/>
        <path stroke="#FFBC00" stroke-linejoin="round" stroke-width="6.124" d="M127.164 31.697v31.354"/>
        <path stroke="#FF8022" stroke-linejoin="round" stroke-width="6.124" d="M127.164 39.025v11.368"/>
        <path stroke="#398EFF" stroke-linejoin="round" stroke-width="6.124" d="M127.164 0v30.707"/>
        <path fill="#FFBC00" d="M129.95 35.884h-5.572c-1.761 0-3.189-1.417-3.189-3.165v-4.486c0-1.748 1.428-3.165 3.189-3.165h5.573c1.76 0 3.188 1.417 3.188 3.165v4.486c0 1.748-1.427 3.165-3.188 3.165"/>
        <path fill="#398EFF" d="M84.804 69.219l5.882 3.532a1.713 1.713 0 0 1 0 2.943l-5.882 3.533c-1.154.694-2.63-.132-2.63-1.471V70.69c0-1.34 1.476-2.165 2.63-1.471"/>
        <path fill="#FFBC00" d="M73.557 108.297l5.882 3.533a1.713 1.713 0 0 1 0 2.943l-5.882 3.533c-1.155.693-2.63-.132-2.63-1.472v-7.065c0-1.34 1.475-2.165 2.63-1.472"/>
        <path fill="#22E5FF" d="M67.933 36.42l5.882 3.533a1.713 1.713 0 0 1 0 2.943l-5.882 3.533c-1.154.693-2.63-.132-2.63-1.472v-7.065c0-1.34 1.476-2.165 2.63-1.472"/>
        <path fill="#DDE6F2" d="M141.392 92.247l5.883 3.533a1.713 1.713 0 0 1 0 2.943l-5.883 3.532c-1.154.694-2.629-.13-2.629-1.47v-7.066c0-1.34 1.475-2.166 2.63-1.472"/>
        <path fill="#22E5FF" d="M100.972 100.272l5.882 3.533a1.713 1.713 0 0 1 0 2.943l-5.882 3.533c-1.155.693-2.63-.132-2.63-1.471v-7.066c0-1.34 1.475-2.166 2.63-1.472M52.689 29.12s.438-2.172 2.189-2.607h-6.65s-1.669.435-1.824 2.608h6.285zM67.137 61.284s.438-2.173 2.19-2.608H53.482s-1.669.435-1.824 2.608h15.48zM67.137 93.013s.438-2.173 2.19-2.608H53.482s-1.669.435-1.824 2.608h15.48z"/>
    </g>
</svg>
