<svg xmlns="http://www.w3.org/2000/svg" xmlns:xlink="http://www.w3.org/1999/xlink" width="86" height="56" viewBox="0 0 86 56">
    <defs>
        <path id="a" d="M0 56V0h86v56z"/>
    </defs>
    <g fill="none" fill-rule="evenodd">
        <mask id="b" fill="#fff">
            <use xlink:href="#a"/>
        </mask>
        <path fill="#00D1FF" d="M11.467 41.835c-1.213-.801-2.77-1.283-4.468-1.283-3.866 0-6.999 2.493-6.999 5.57 0 3.076 3.133 4.085 7 4.085h.012c-.007-.147-.028-.287-.028-.436 0-3.203 1.751-6.062 4.483-7.936M38.222 46.122c0-3.076-3.138-5.57-7.007-5.57-1.695 0-3.248.478-4.46 1.273 2.744 1.875 4.505 4.738 4.505 7.946 0 .149-.02.29-.029.436 3.862-.003 6.991-1.013 6.991-4.085M23.889 34.759c0-3.2-1.907-5.793-5.256-5.793s-5.255 2.594-5.255 5.793c0 3.198 1.906 5.793 5.255 5.793 3.35 0 5.256-2.595 5.256-5.793M27.711 49.724c0-4-4.064-7.241-9.078-7.241-5.014 0-9.077 3.242-9.077 7.24 0 4 4.063 5.311 9.077 5.311s9.078-1.31 9.078-5.31M26.435 37.773c.631 1.095 1.713 1.813 3.187 1.813 2.436 0 3.822-1.945 3.822-4.345 0-2.398-1.386-4.344-3.822-4.344-1.5 0-2.599.741-3.224 1.87-.39.702-.598 1.553-.598 2.474 0 .948.224 1.818.635 2.532M10.892 32.802c-.622-1.15-1.73-1.905-3.248-1.905-2.435 0-3.822 1.946-3.822 4.344 0 2.4 1.387 4.345 3.822 4.345 1.491 0 2.584-.733 3.211-1.85.398-.706.612-1.563.612-2.495 0-.904-.199-1.743-.575-2.44" mask="url(#b)"/>
        <path fill="#398EFF" d="M58.289 41.835c-1.213-.801-2.77-1.283-4.468-1.283-3.866 0-6.999 2.493-6.999 5.57 0 3.076 3.133 4.085 7 4.085h.012c-.007-.147-.028-.287-.028-.436 0-3.203 1.751-6.062 4.483-7.936M85.044 46.122c0-3.076-3.137-5.57-7.007-5.57-1.694 0-3.248.478-4.46 1.273 2.744 1.875 4.505 4.738 4.505 7.946 0 .149-.02.29-.028.436 3.861-.003 6.99-1.013 6.99-4.085M71.667 34.759c0-3.2-1.907-5.793-5.256-5.793s-5.255 2.594-5.255 5.793c0 3.198 1.906 5.793 5.255 5.793 3.35 0 5.256-2.595 5.256-5.793M75.489 49.724c0-4-4.064-7.241-9.078-7.241-5.014 0-9.078 3.242-9.078 7.24 0 4 4.064 5.311 9.078 5.311 5.014 0 9.078-1.31 9.078-5.31M74.213 37.773c.631 1.095 1.713 1.813 3.187 1.813 2.436 0 3.822-1.945 3.822-4.345 0-2.398-1.386-4.344-3.822-4.344-1.5 0-2.6.741-3.224 1.87-.39.702-.598 1.553-.598 2.474 0 .948.224 1.818.635 2.532M58.67 32.802c-.622-1.15-1.73-1.905-3.248-1.905-2.436 0-3.822 1.946-3.822 4.344 0 2.4 1.386 4.345 3.822 4.345 1.49 0 2.584-.733 3.21-1.85.399-.706.612-1.563.612-2.495 0-.904-.198-1.743-.574-2.44" mask="url(#b)"/>
        <path fill="#FFBC00" d="M41.567 10.62c2.74 0 4.3-2.377 4.3-5.31S44.307 0 41.567 0c-2.74 0-4.3 2.377-4.3 5.31s1.56 5.31 4.3 5.31M42.522 11.586c-4.485 0-8.122 2.993-8.122 6.685 0 3.692 3.637 4.901 8.122 4.901 4.486 0 8.122-1.21 8.122-4.901 0-3.692-3.636-6.685-8.122-6.685" mask="url(#b)"/>
    </g>
</svg>
