<svg xmlns="http://www.w3.org/2000/svg" width="22" height="22" viewBox="0 0 22 22">
    <g fill="none" fill-rule="evenodd">
        <path fill="#AEB8C4" d="M0 22h22V0H0z"/>
        <path fill="#FFF" d="M5.25 7.358a.573.573 0 0 0-.186-.483l-1.38-1.663v-.248h4.285l3.311 7.264 2.912-7.264h4.085v.248l-1.18 1.132a.345.345 0 0 0-.131.33v8.313a.345.345 0 0 0 .131.33l1.152 1.132v.248h-5.796v-.248l1.194-1.159c.117-.117.117-.151.117-.33V8.24l-3.318 8.43h-.449L6.133 8.24v5.65a.78.78 0 0 0 .214.648L7.9 16.422v.248H3.497v-.248l1.553-1.884a.752.752 0 0 0 .2-.648V7.358z"/>
    </g>
</svg>
