<svg xmlns="http://www.w3.org/2000/svg" width="48" height="48" fill="none" viewBox="0 0 48 48">
    <path fill="#398EFF" d="M6 12c-1.1 0-2 .9-2 2v26c0 2.2 1.8 4 4 4h26c1.1 0 2-.9 2-2s-.9-2-2-2H10c-1.1 0-2-.9-2-2V14c0-1.1-.9-2-2-2z" opacity=".6"/>
    <path fill="#24D2FD" fill-rule="evenodd" d="M16 4h24c2.2 0 4 1.8 4 4v24c0 2.2-1.8 4-4 4H16c-2.2 0-4-1.8-4-4V8c0-2.2 1.8-4 4-4zm14 18h6c1.1 0 2-.9 2-2s-.9-2-2-2h-6v-6c0-1.1-.9-2-2-2s-2 .9-2 2v6h-6c-1.1 0-2 .9-2 2s.9 2 2 2h6v6c0 1.1.9 2 2 2s2-.9 2-2v-6z" clip-rule="evenodd"/>
</svg>
