<svg xmlns="http://www.w3.org/2000/svg" width="57" height="42" fill="none" viewBox="0 0 57 42">
    <path fill="#24D2FD" d="M20.789 7.411c-3.35-3.35-8.367-4.033-12.4-2.066l6.05 6.05c.65.65.65 1.7 0 2.35l-2.65 2.65a1.63 1.63 0 0 1-2.35 0l-6.05-6.05c-1.95 4.05-1.267 9.033 2.083 12.383 3.1 3.1 7.634 3.917 11.484 2.467L30.222 38.46a4.356 4.356 0 0 0 6.184 0 4.356 4.356 0 0 0 0-6.183l-13.2-13.217c1.533-3.9.733-8.5-2.417-11.65z"/>
    <path fill="#398EFF" fill-rule="evenodd" d="M52.2 12l-3.9 3.9a.984.984 0 0 0 0 1.4c.39.39 1.01.39 1.4 0l4.59-4.6a.996.996 0 0 0 0-1.41L49.7 6.7a.984.984 0 0 0-1.4 0 .984.984 0 0 0 0 1.4l3.9 3.9zm-14.4 0l3.9 3.9c.39.39.39 1.01 0 1.4a.984.984 0 0 1-1.4 0l-4.59-4.6a.996.996 0 0 1 0-1.41L40.3 6.7a.984.984 0 0 1 1.4 0c.39.39.39 1.01 0 1.4L37.8 12z" clip-rule="evenodd" opacity=".6"/>
</svg>
