<svg xmlns="http://www.w3.org/2000/svg" width="50" height="48" fill="none" viewBox="0 0 50 48">
    <path fill="#24D2FD" fill-rule="evenodd" d="M11.983 11.294L23.65 6.11a3.313 3.313 0 0 1 2.7 0l11.667 5.184A3.348 3.348 0 0 1 40 14.344v7.833c0 9.25-6.4 17.9-15 20-8.6-2.1-15-10.75-15-20v-7.833c0-1.317.783-2.517 1.983-3.05zm4.183 15.383l4.317 4.317c.65.65 1.717.65 2.35 0L33.816 20.01c.65-.65.65-1.7 0-2.35a1.66 1.66 0 0 0-2.35 0l-9.8 9.8-3.15-3.134a1.66 1.66 0 0 0-2.35 0 1.66 1.66 0 0 0 0 2.35z" clip-rule="evenodd"/>
    <g fill="#398EFF" opacity=".6">
        <path d="M0 2.333v3.5A1.17 1.17 0 0 0 1.167 7a1.17 1.17 0 0 0 1.166-1.167V3.5A1.17 1.17 0 0 1 3.5 2.333h2.333A1.17 1.17 0 0 0 7 1.167 1.17 1.17 0 0 0 5.833 0h-3.5A2.34 2.34 0 0 0 0 2.333zM1.167 40A1.17 1.17 0 0 0 0 41.167v3.5A2.34 2.34 0 0 0 2.333 47h3.5A1.17 1.17 0 0 0 7 45.833a1.17 1.17 0 0 0-1.167-1.166H3.5A1.17 1.17 0 0 1 2.333 43.5v-2.333A1.17 1.17 0 0 0 1.167 40zM46.667 43.5a1.17 1.17 0 0 1-1.167 1.167h-2.333A1.17 1.17 0 0 0 42 45.833 1.17 1.17 0 0 0 43.167 47h3.5A2.34 2.34 0 0 0 49 44.667v-3.5A1.17 1.17 0 0 0 47.833 40a1.17 1.17 0 0 0-1.166 1.167V43.5zM46.667 0h-3.5A1.17 1.17 0 0 0 42 1.167a1.17 1.17 0 0 0 1.167 1.166H45.5A1.17 1.17 0 0 1 46.667 3.5v2.333A1.17 1.17 0 0 0 47.833 7 1.17 1.17 0 0 0 49 5.833v-3.5A2.34 2.34 0 0 0 46.667 0z"/>
    </g>
</svg>
