<svg width="46" height="46" viewBox="0 0 46 46" fill="none" xmlns="http://www.w3.org/2000/svg">
<path fill-rule="evenodd" clip-rule="evenodd" d="M21.9975 15C13.6122 15 6.37366 20.177 3 27.665C6.37366 35.153 13.6122 40.33 21.9975 40.33C30.3828 40.33 37.6213 35.153 40.995 27.665C37.6213 20.177 30.3828 15 21.9975 15ZM30.4408 27.665C30.4408 32.3281 26.6606 36.1083 21.9975 36.1083C17.3344 36.1083 13.5542 32.3281 13.5542 27.665C13.5542 23.0019 17.3344 19.2217 21.9975 19.2217C26.6606 19.2217 30.4408 23.0019 30.4408 27.665Z" fill="#DDE6F2"/>
<path d="M26.2192 27.665C26.2192 29.9965 24.3291 31.8866 21.9975 31.8866C19.666 31.8866 17.7759 29.9965 17.7759 27.665C17.7759 25.3334 19.666 23.4433 21.9975 23.4433C24.3291 23.4433 26.2192 25.3334 26.2192 27.665Z" fill="#DDE6F2"/>
<path d="M18.6367 26.1933C17.8083 26.1933 17.1367 25.5217 17.1367 24.6933C17.1367 23.8649 17.8083 23.1933 18.6367 23.1933C19.4651 23.1933 20.1367 23.8649 20.1367 24.6933C20.1367 25.5217 19.4651 26.1933 18.6367 26.1933Z" fill="white" stroke="#DDE6F2" stroke-width="0.5"/>
</svg>
