<svg width="46" height="46" viewBox="0 0 46 46" fill="none" xmlns="http://www.w3.org/2000/svg">
<path d="M37.6217 28.8158L32.4651 25.467L33.6176 30.8895C33.9621 32.5101 32.9276 34.1032 31.3069 34.4476L11.1766 38.7265C9.55599 39.0709 7.96294 38.0364 7.61846 36.4157L4.12911 19.9996C3.78463 18.379 4.81917 16.7859 6.43981 16.4415L26.5701 12.1626C28.1908 11.8181 29.7838 12.8527 30.1283 14.4733L31.2809 19.8958L34.6257 14.7205C35.547 13.3019 37.7302 13.7113 38.0816 15.3641L40.5171 26.8223C40.8684 28.4751 39.0404 29.7371 37.6217 28.8158Z" fill="#DDE6F2"/>
<path d="M33.2137 25.3078L33.2568 25.5104L33.4305 25.6232L38.5871 28.972C40.3813 30.1371 42.6873 28.5414 42.2439 26.4552L39.8083 14.9969C39.3649 12.9107 36.6092 12.3909 35.4441 14.185L35.4435 14.186L32.0986 19.3612L31.9866 19.5346L32.0295 19.7366L33.2137 25.3078Z" fill="#DDE6F2" stroke="white"/>
<path d="M23.5046 18.3138C23.6681 19.083 24.4242 19.574 25.1934 19.4105C25.9627 19.247 26.4537 18.4909 26.2902 17.7217C26.1267 16.9524 25.3706 16.4614 24.6013 16.6249C23.8321 16.7884 23.3411 17.5445 23.5046 18.3138Z" fill="white"/>
</svg>
