<svg width="46" height="46" viewBox="0 0 46 46" fill="none" xmlns="http://www.w3.org/2000/svg">
<g clip-path="url(#clip0)">
<path fill-rule="evenodd" clip-rule="evenodd" d="M8.88232 29.9879L12.8258 40.2409L33.841 38.6842C34.0237 38.6707 34.1992 38.6072 34.3484 38.5007L45.162 30.7766C45.6878 30.5137 46.5817 29.6725 45.9507 28.4106C45.162 26.8332 44.0086 27.0156 42.796 27.6219C42.2302 27.9048 41.1233 28.3906 39.8027 28.9701C37.4416 30.0064 34.3976 31.3424 32.543 32.354H22.29C22.29 32.354 20.7127 32.5117 20.7127 31.2498C20.7127 29.9879 22.29 29.9879 22.29 29.9879H30.1769C30.1769 29.9879 32.543 29.9879 32.543 27.6219C32.543 25.2558 30.9656 25.2558 30.9656 25.2558H17.8129C17.6456 25.2558 17.4809 25.2978 17.334 25.3779L8.88232 29.9879ZM6.48872 28.9557L0 31.4776L5.71414 46.18L12.2029 43.6582L6.48872 28.9557Z" fill="#DDE6F2"/>
<path d="M26.5096 19.5108C25.9102 20.055 24.9874 20.055 24.388 19.5029L24.3013 19.424C20.1607 15.6777 17.4555 13.2249 17.558 10.1648C17.6053 8.82402 18.2915 7.53846 19.4035 6.78132C21.4857 5.36168 24.0568 6.02418 25.4449 7.64888C26.833 6.02418 29.4041 5.35379 31.4862 6.78132C32.5983 7.53846 33.2845 8.82402 33.3318 10.1648C33.4422 13.2249 30.7291 15.6777 26.5885 19.4398L26.5096 19.5108Z" fill="#DDE6F2"/>
</g>
<defs>
<clipPath id="clip0">
<rect width="46" height="46" fill="white"/>
</clipPath>
</defs>
</svg>
