<svg width="46" height="46" viewBox="0 0 46 46" fill="none" xmlns="http://www.w3.org/2000/svg">
<path d="M40.2915 13.75H6.5415C4.479 13.75 2.7915 15.4375 2.7915 17.5V32.5C2.7915 34.5625 4.479 36.25 6.5415 36.25H40.2915C42.354 36.25 44.0415 34.5625 44.0415 32.5V17.5C44.0415 15.4375 42.354 13.75 40.2915 13.75Z" fill="#DDE6F2"/>
<path d="M19.6665 26.875H15.9165V30.625C15.9165 31.6563 15.0728 32.5 14.0415 32.5C13.0103 32.5 12.1665 31.6563 12.1665 30.625V26.875H8.4165C7.38525 26.875 6.5415 26.0313 6.5415 25C6.5415 23.9688 7.38525 23.125 8.4165 23.125H12.1665V19.375C12.1665 18.3438 13.0103 17.5 14.0415 17.5C15.0728 17.5 15.9165 18.3438 15.9165 19.375V23.125H19.6665C20.6978 23.125 21.5415 23.9688 21.5415 25C21.5415 26.0313 20.6978 26.875 19.6665 26.875Z" fill="white"/>
<path d="M29.9795 30.625C28.4232 30.625 27.167 29.3687 27.167 27.8125C27.167 26.2563 28.4232 25 29.9795 25C31.5357 25 32.792 26.2563 32.792 27.8125C32.792 29.3687 31.5357 30.625 29.9795 30.625Z" fill="white"/>
<path d="M37.479 25C35.9228 25 34.6665 23.7437 34.6665 22.1875C34.6665 20.6313 35.9228 19.375 37.479 19.375C39.0353 19.375 40.2915 20.6313 40.2915 22.1875C40.2915 23.7437 39.0353 25 37.479 25Z" fill="white"/>
</svg>
