<?xml version="1.0" encoding="UTF-8" standalone="no"?>
<svg width="298px" height="298px" viewBox="0 0 298 298" version="1.1" xmlns="http://www.w3.org/2000/svg" xmlns:xlink="http://www.w3.org/1999/xlink">
    <!-- Generator: Sketch 46.2 (44496) - http://www.bohemiancoding.com/sketch -->
    <title>pie-chart-with-legend</title>
    <desc>Created with Sketch.</desc>
    <defs></defs>
    <g id="Page-1" stroke="none" stroke-width="1" fill="none" fill-rule="evenodd">
        <g id="pie-chart-with-legend" transform="translate(1.000000, 1.000000)" fill-rule="nonzero">
            <g id="Group" stroke-linejoin="round" stroke="#FFFFFF" stroke-width="2">
                <path d="M148.03,295.5 C84.164,295.513 27.544,254.422 7.758,193.698 C-12.029,132.974 9.512,66.414 61.125,28.798 L148,148 L148.03,295.5 Z" id="Shape" fill="#180CB3"></path>
                <path d="M61.245,28.711 C86.4233697,10.3996276 116.750123,0.524653255 147.883,0.5 L148,148 L61.245,28.711 Z" id="Shape" fill="#0984FF"></path>
                <path d="M148.03,295.5 C188.715997,295.491731 227.591679,278.678113 255.461256,249.036298 C283.330832,219.394484 297.71888,179.55731 295.222,138.948 L148,148 L148.03,295.5 Z" id="Shape" fill="#FF9E46"></path>
                <path d="M295.213,138.8 C294.442228,126.467127 292.12474,114.279988 288.315,102.525 L148,148 L295.213,138.8 Z" id="Shape" fill="#FFCA3C"></path>
                <path d="M288.27,102.385 C268.536,41.701 212.017,0.59 148.205,0.5 L148,148 L288.27,102.385 Z" id="Shape" fill="#34C3FF"></path>
            </g>
            <circle id="Oval" fill="#F6F9FC" cx="148" cy="148" r="60"></circle>
        </g>
    </g>
</svg>