<?xml version="1.0" encoding="utf-8"?>
<!-- Generator: Adobe Illustrator 17.0.0, SVG Export Plug-In . SVG Version: 6.00 Build 0)  -->
<!DOCTYPE svg PUBLIC "-//W3C//DTD SVG 1.1//EN" "http://www.w3.org/Graphics/SVG/1.1/DTD/svg11.dtd">
<svg version="1.1" id="Calque_1" xmlns="http://www.w3.org/2000/svg" xmlns:xlink="http://www.w3.org/1999/xlink" x="0px" y="0px"
	 width="892px" height="379px" viewBox="0 52 892 379" enable-background="new 0 52 892 379" xml:space="preserve">
<text transform="matrix(1 0 0 1 -1.3 69)" fill="#6B7C93" font-family="'SourceSansPro-Regular'" font-size="20">100%</text>
<text transform="matrix(1 0 0 1 396.048 430)" font-family="'SourceSansPro-Regular'" font-size="18">Years</text>
<text transform="matrix(1 0 0 1 8.64 151)" fill="#6B7C93" font-family="'SourceSansPro-Regular'" font-size="20">75%</text>
<text transform="matrix(1 0 0 1 8.64 231)" fill="#6B7C93" font-family="'SourceSansPro-Regular'" font-size="20">50%</text>
<text transform="matrix(1 0 0 1 8.64 314)" fill="#6B7C93" font-family="'SourceSansPro-Regular'" font-size="20">25%</text>
<text transform="matrix(1 0 0 1 18.58 391)" fill="#6B7C93" font-family="'SourceSansPro-Regular'" font-size="20">0%</text>
<g>
	<text transform="matrix(1 0 0 1 115.312 401)" fill="#6B7C93" font-family="'SourceSansPro-Regular'" font-size="15">0</text>
	<text transform="matrix(1 0 0 1 399.585 401)" fill="#6B7C93" font-family="'SourceSansPro-Regular'" font-size="15">10</text>
	<text transform="matrix(1 0 0 1 259.312 401)" fill="#6B7C93" font-family="'SourceSansPro-Regular'" font-size="15">5</text>
	<text transform="matrix(1 0 0 1 543.585 401)" fill="#6B7C93" font-family="'SourceSansPro-Regular'" font-size="15">15</text>
	<text transform="matrix(1 0 0 1 144.112 401)" fill="#6B7C93" font-family="'SourceSansPro-Regular'" font-size="15">1</text>
	<text transform="matrix(1 0 0 1 428.385 401)" fill="#6B7C93" font-family="'SourceSansPro-Regular'" font-size="15">11</text>
	<text transform="matrix(1 0 0 1 288.112 401)" fill="#6B7C93" font-family="'SourceSansPro-Regular'" font-size="15">6</text>
	<text transform="matrix(1 0 0 1 572.385 401)" fill="#6B7C93" font-family="'SourceSansPro-Regular'" font-size="15">16</text>
	<text transform="matrix(1 0 0 1 172.912 401)" fill="#6B7C93" font-family="'SourceSansPro-Regular'" font-size="15">2</text>
	<text transform="matrix(1 0 0 1 457.185 401)" fill="#6B7C93" font-family="'SourceSansPro-Regular'" font-size="15">12</text>
	<text transform="matrix(1 0 0 1 316.912 401)" fill="#6B7C93" font-family="'SourceSansPro-Regular'" font-size="15">7</text>
	<text transform="matrix(1 0 0 1 601.185 401)" fill="#6B7C93" font-family="'SourceSansPro-Regular'" font-size="15">17</text>
	<text transform="matrix(1 0 0 1 201.712 401)" fill="#6B7C93" font-family="'SourceSansPro-Regular'" font-size="15">3</text>
	<text transform="matrix(1 0 0 1 485.985 401)" fill="#6B7C93" font-family="'SourceSansPro-Regular'" font-size="15">13</text>
	<text transform="matrix(1 0 0 1 345.712 401)" fill="#6B7C93" font-family="'SourceSansPro-Regular'" font-size="15">8</text>
	<text transform="matrix(1 0 0 1 629.985 401)" fill="#6B7C93" font-family="'SourceSansPro-Regular'" font-size="15">18</text>
	<text transform="matrix(1 0 0 1 230.512 401)" fill="#6B7C93" font-family="'SourceSansPro-Regular'" font-size="15">4</text>
	<text transform="matrix(1 0 0 1 514.785 401)" fill="#6B7C93" font-family="'SourceSansPro-Regular'" font-size="15">14</text>
	<text transform="matrix(1 0 0 1 374.512 401)" fill="#6B7C93" font-family="'SourceSansPro-Regular'" font-size="15">9</text>
	<text transform="matrix(1 0 0 1 658.785 401)" fill="#6B7C93" font-family="'SourceSansPro-Regular'" font-size="15">19</text>
	<text transform="matrix(1 0 0 1 687.585 401)" fill="#6B7C93" font-family="'SourceSansPro-Regular'" font-size="15">20</text>
</g>
<path fill="#34C3FF" d="M76.739,384.38h29.016v-64.428H76.739V384.38z"/>
<path fill="#FF9E46" d="M110.001,384.38h29.016V267.914h-29.016V384.38z"/>
<path fill="#34C3FF" d="M142.556,384.38h29.016V282.163h-29.016V384.38z"/>
<path fill="#FF9E46" d="M175.818,384.38h29.016V163.837h-29.016V384.38z M208.372,384.38h29.016V156.403h-29.016V384.38z
	 M241.635,384.38h29.016V145.252h-29.016V384.38z M274.19,384.38h29.015V129.765H274.19V384.38z"/>
<path fill="#0014AF" d="M274.19,384.38h29.015v-71.242H274.19V384.38z"/>
<path fill="#2884FF" d="M274.19,313.138h29.015v-17.966H274.19V313.138z"/>
<path fill="#34C3FF" d="M274.19,295.172h29.015v-64.428H274.19V295.172z"/>
<path fill="#FFCA3C" d="M274.19,230.744h29.015v-13.01H274.19V230.744z"/>
<path fill="#FF9E46" d="M307.451,384.38h29.016V125.428h-29.016V384.38z"/>
<path fill="#0014AF" d="M307.451,384.38h29.016v-78.676h-29.016V384.38z"/>
<path fill="#2884FF" d="M307.451,305.704h29.016v-18.585h-29.016V305.704z"/>
<path fill="#34C3FF" d="M307.451,287.119h29.016V222.69h-29.016V287.119z"/>
<path fill="#FFCA3C" d="M307.451,222.69h29.016v-13.629h-29.016V222.69z"/>
<path fill="#FF9E46" d="M340.006,384.38h29.016V117.375h-29.016V384.38z"/>
<path fill="#0014AF" d="M340.006,384.38h29.016v-84.252h-29.016V384.38z"/>
<path fill="#2884FF" d="M340.006,300.128h29.016v-21.682h-29.016V300.128z"/>
<path fill="#34C3FF" d="M340.006,278.446h29.016v-64.429h-29.016V278.446z"/>
<path fill="#FFCA3C" d="M340.006,214.017h29.016v-13.629h-29.016V214.017z"/>
<path fill="#FF9E46" d="M373.268,384.38h29.016V109.94h-29.016V384.38z"/>
<path fill="#0014AF" d="M373.268,384.38h29.016v-90.447h-29.016V384.38z"/>
<path fill="#2884FF" d="M373.268,293.933h29.016v-22.922h-29.016V293.933z"/>
<path fill="#34C3FF" d="M373.268,271.011h29.016v-64.428h-29.016V271.011z"/>
<path fill="#FFCA3C" d="M373.268,206.583h29.016v-13.01h-29.016V206.583z"/>
<path fill="#FF9E46" d="M405.823,384.38h29.016V104.365h-29.016V384.38z"/>
<path fill="#0014AF" d="M405.823,384.38h29.016v-95.403h-29.016V384.38z"/>
<path fill="#2884FF" d="M405.823,288.977h29.016v-23.541h-29.016V288.977z"/>
<path fill="#34C3FF" d="M405.823,265.436h29.016v-64.428h-29.016V265.436z"/>
<path fill="#FFCA3C" d="M405.823,201.008h29.016v-13.63h-29.016V201.008z"/>
<path fill="#FF9E46" d="M439.085,384.38h29.016V99.41h-29.016V384.38z"/>
<path fill="#0014AF" d="M439.085,384.38h29.016v-99.12h-29.016V384.38z"/>
<path fill="#2884FF" d="M439.085,285.26h29.016v-24.78h-29.016V285.26z"/>
<path fill="#34C3FF" d="M439.085,260.48h29.016v-64.428h-29.016V260.48z"/>
<path fill="#FFCA3C" d="M439.085,196.052h29.016v-13.01h-29.016V196.052z"/>
<path fill="#FF9E46" d="M471.64,384.38h29.016V94.453H471.64V384.38z M504.194,384.38h29.016V90.117h-29.016L504.194,384.38z"/>
<path fill="#0014AF" d="M504.194,384.38h29.016V278.446h-29.016L504.194,384.38z"/>
<path fill="#2884FF" d="M504.194,278.446h29.016v-27.259h-29.016L504.194,278.446z"/>
<path fill="#34C3FF" d="M504.194,251.187h29.016V186.76h-29.016L504.194,251.187z"/>
<path fill="#FFCA3C" d="M504.194,186.76h29.016v-12.391h-29.016L504.194,186.76z"/>
<path fill="#0014AF" d="M471.64,384.38h29.016V280.924H471.64V384.38z"/>
<path fill="#2884FF" d="M471.64,280.924h29.016v-25.4H471.64V280.924z"/>
<path fill="#34C3FF" d="M471.64,255.524h29.016v-64.428H471.64V255.524z"/>
<path fill="#FFCA3C" d="M471.64,191.096h29.016v-13.01H471.64V191.096z"/>
<path fill="#FF9E46" d="M537.456,384.38h29.016V86.4h-29.016V384.38z"/>
<path fill="#0014AF" d="M537.456,384.38h29.016V274.728h-29.016V384.38z"/>
<path fill="#2884FF" d="M537.456,274.728h29.016V248.71h-29.016V274.728z"/>
<path fill="#34C3FF" d="M537.456,248.71h29.016v-65.668h-29.016V248.71z"/>
<path fill="#FFCA3C" d="M537.456,183.042h29.016v-12.39h-29.016V183.042z"/>
<path fill="#FF9E46" d="M570.719,384.38h29.016V83.922h-29.016V384.38z"/>
<path fill="#0014AF" d="M570.719,384.38h29.016V272.25h-29.016V384.38z"/>
<path fill="#2884FF" d="M570.719,272.25h29.016v-27.258h-29.016V272.25z"/>
<path fill="#34C3FF" d="M570.719,244.992h29.016v-64.428h-29.016V244.992z"/>
<path fill="#FFCA3C" d="M570.719,180.564h29.016v-13.01h-29.016V180.564z"/>
<path fill="#FF9E46" d="M603.273,384.38h29.016V81.444h-29.016V384.38z"/>
<path fill="#0014AF" d="M603.273,384.38h29.016V269.772h-29.016V384.38z"/>
<path fill="#2884FF" d="M603.273,269.772h29.016v-27.258h-29.016V269.772z"/>
<path fill="#34C3FF" d="M603.273,242.514h29.016v-64.428h-29.016V242.514z"/>
<path fill="#FFCA3C" d="M603.273,178.086h29.016v-13.01h-29.016V178.086z"/>
<path fill="#FF9E46" d="M636.536,384.38h29.016V78.966h-29.016V384.38z"/>
<path fill="#0014AF" d="M636.536,384.38h29.016V268.533h-29.016V384.38z"/>
<path fill="#2884FF" d="M636.536,268.533h29.016v-28.497h-29.016V268.533z"/>
<path fill="#34C3FF" d="M636.536,240.036h29.016v-64.428h-29.016V240.036z"/>
<path fill="#FFCA3C" d="M636.536,175.608h29.016v-13.01h-29.016V175.608z"/>
<path fill="#FF9E46" d="M669.09,384.38h29.016V76.488H669.09V384.38z M702.352,384.38h29.016V74.01h-29.016V384.38z M734.907,384.38
	h29.016V72.77h-29.016V384.38z"/>
<path fill="#0014AF" d="M110.001,384.38h29.016v-16.726h-29.016V384.38z"/>
<path fill="#2884FF" d="M110.001,367.654h29.016v-3.098h-29.016V367.654z"/>
<path fill="#34C3FF" d="M110.001,364.556h29.016v-64.428h-29.016V364.556z"/>
<path fill="#FFCA3C" d="M110.001,300.128h29.016v-4.956h-29.016V300.128z"/>
<path fill="#0014AF" d="M142.556,384.38h29.016v-30.975h-29.016V384.38z"/>
<path fill="#2884FF" d="M142.556,353.405h29.016v-6.814h-29.016V353.405z"/>
<path fill="#FFCA3C" d="M142.556,282.163h29.016v-8.674h-29.016V282.163z"/>
<path fill="#FF9E46" d="M142.556,273.49h29.016v-55.756h-29.016V273.49z"/>
<path fill="#0014AF" d="M175.818,384.38h29.016v-42.745h-29.016V384.38z"/>
<path fill="#2884FF" d="M175.818,341.635h29.016v-10.532h-29.016V341.635z"/>
<path fill="#34C3FF" d="M175.818,331.103h29.016v-64.428h-29.016V331.103z"/>
<path fill="#FFCA3C" d="M175.818,266.675h29.016v-13.63h-29.016V266.675z"/>
<path fill="#0014AF" d="M208.372,384.38h29.016v-53.277h-29.016V384.38z"/>
<path fill="#2884FF" d="M208.372,331.103h29.016v-13.01h-29.016V331.103z"/>
<path fill="#34C3FF" d="M208.372,318.094h29.016v-65.048h-29.016V318.094z"/>
<path fill="#FFCA3C" d="M208.372,253.046h29.016v-13.01h-29.016V253.046z"/>
<path fill="#0014AF" d="M241.635,384.38h29.016v-63.189h-29.016V384.38z"/>
<path fill="#2884FF" d="M241.635,321.191h29.016v-15.487h-29.016V321.191z"/>
<path fill="#34C3FF" d="M241.635,305.704h29.016v-64.429h-29.016V305.704z"/>
<path fill="#FFCA3C" d="M241.635,241.275h29.016v-13.01h-29.016V241.275z"/>
<path fill="#0014AF" d="M669.09,384.38h29.016V266.055H669.09V384.38z"/>
<path fill="#2884FF" d="M669.09,266.055h29.016v-28.497H669.09V266.055z"/>
<path fill="#34C3FF" d="M669.09,237.744h29.016V173.13H669.09V237.744z"/>
<path fill="#FFCA3C" d="M669.09,173.13h29.016v-13.01H669.09V173.13z"/>
<path fill="#0014AF" d="M702.352,384.38h29.016V265.436h-29.016V384.38z"/>
<path fill="#2884FF" d="M702.352,265.436h29.016V235.7h-29.016V265.436z"/>
<path fill="#34C3FF" d="M702.352,235.7h29.016v-64.965h-29.016V235.7z"/>
<path fill="#FFCA3C" d="M702.352,170.652h29.016v-11.77h-29.016V170.652z"/>
<path fill="#0014AF" d="M734.907,384.38h29.016V264.197h-29.016V384.38z"/>
<path fill="#2884FF" d="M734.907,264.197h29.016V234.46h-29.016V264.197z"/>
<path fill="#34C3FF" d="M734.907,234.46h29.016v-64.427h-29.016V234.46z"/>
<path fill="#FFCA3C" d="M734.907,170.033h29.016v-13.63h-29.016V170.033z"/>
<path d="M770.292,385H64.708c-0.39,0-0.708-0.277-0.708-0.62c0-0.342,0.317-0.619,0.708-0.619h705.584
	c0.39,0,0.708,0.277,0.708,0.62C771,384.723,770.683,385,770.292,385"/>
<path fill="#FFFFFF" d="M770.292,305.084H64.708c-0.39,0-0.708-0.277-0.708-0.62c0-0.342,0.317-0.619,0.708-0.619h705.584
	c0.39,0,0.708,0.277,0.708,0.62c0,0.342-0.317,0.62-0.708,0.62"/>
<path fill="#929FAD" d="M105.21,305.084H64.04c-0.023,0-0.041-0.277-0.041-0.62c0-0.342,0.018-0.619,0.041-0.619h41.169
	c0.023,0,0.041,0.277,0.041,0.62c0,0.342-0.018,0.62-0.041,0.62"/>
<path fill="#FFFFFF" d="M770.292,223.31H64.708c-0.39,0-0.708-0.277-0.708-0.62c0-0.342,0.317-0.62,0.708-0.62h705.584
	c0.39,0,0.708,0.278,0.708,0.62C771,223.033,770.683,223.31,770.292,223.31"/>
<path fill="#909FAE" d="M138.407,223.31H64.075c-0.042,0-0.075-0.277-0.075-0.62c0-0.342,0.033-0.62,0.075-0.62h74.332
	c0.041,0,0.074,0.278,0.074,0.62C138.481,223.033,138.448,223.31,138.407,223.31"/>
<path fill="#FFFFFF" d="M770.292,143.394H64.708c-0.39,0-0.708-0.277-0.708-0.62c0-0.342,0.317-0.62,0.708-0.62h705.584
	c0.39,0,0.708,0.278,0.708,0.62C771,143.117,770.683,143.394,770.292,143.394"/>
<path fill="#929FAD" d="M270.05,143.394H64.206c-0.114,0-0.206-0.277-0.206-0.62c0-0.342,0.092-0.62,0.206-0.62H270.05
	c0.114,0,0.206,0.278,0.206,0.62C270.256,143.117,270.164,143.394,270.05,143.394 M770.292,62.239H64.708
	c-0.39,0-0.708-0.277-0.708-0.62C64,61.277,64.317,61,64.708,61h705.584c0.39,0,0.708,0.277,0.708,0.62
	C771,61.962,770.683,62.239,770.292,62.239"/>
<linearGradient id="SVGID_1_" gradientUnits="userSpaceOnUse" x1="130.42" y1="635.0331" x2="130.42" y2="634.0331" gradientTransform="matrix(8 0 0 -213.01 -233.3601 135439.4219)">
	<stop  offset="0" style="stop-color:#00C5FF"/>
	<stop  offset="1" style="stop-color:#180CB3"/>
</linearGradient>
<path fill="none" stroke="url(#SVGID_1_)" stroke-width="2" stroke-linecap="round" d="M806,171l8,5v203.01l-7.244,5"/>
<linearGradient id="SVGID_2_" gradientUnits="userSpaceOnUse" x1="132.4845" y1="633.8547" x2="132.4845" y2="632.8547" gradientTransform="matrix(9 0 0 -96 -382.8601 60923.0547)">
	<stop  offset="0" style="stop-color:#FF9A39"/>
	<stop  offset="1" style="stop-color:#FFC81C"/>
</linearGradient>
<path fill="none" stroke="url(#SVGID_2_)" stroke-width="2" stroke-linecap="round" d="M805,73l9,5v86l-8.244,5"/>
<text transform="matrix(1 0 0 1 829 117)" fill="#6B7C93" font-family="'SourceSansPro-Regular'" font-size="22">30%</text>
<text transform="matrix(1 0 0 1 868.9955 117)" fill="#6B7C93" font-family="'SourceSansPro-Regular'" font-size="22"> </text>
<text transform="matrix(1 0 0 1 832.648 138.758)" fill="#6B7C93" font-family="'SourceSansPro-Regular'" font-size="14">Company</text>
<text transform="matrix(1 0 0 1 888.7036 138.758)" fill="#6B7C93" font-family="'SourceSansPro-Regular'" font-size="22"> </text>
<text transform="matrix(1 0 0 1 832.648 153.758)" fill="#6B7C93" font-family="'SourceSansPro-Regular'" font-size="14">&amp; Advisors</text>
<text transform="matrix(1 0 0 1 829 282)" fill="#6B7C93" font-family="'SourceSansPro-Regular'" font-size="22">70%</text>
<text transform="matrix(1 0 0 1 868.9955 282)" fill="#6B7C93" font-family="'SourceSansPro-Regular'" font-size="22"> </text>
<text transform="matrix(1 0 0 1 832.648 303.758)" fill="#6B7C93" font-family="'SourceSansPro-Regular'" font-size="14">Public</text>
</svg>
