<svg width="1032" height="626" viewBox="0 0 1032 626" fill="none" xmlns="http://www.w3.org/2000/svg">
<path d="M584.83 158.48C630.629 100.073 701.841 62.545 781.818 62.545C919.99 62.545 1032 174.555 1032 312.727C1032 450.9 919.99 562.91 781.818 562.91C701.841 562.91 630.629 525.382 584.83 466.976C531.066 561.616 429.352 625.456 312.727 625.456C140.013 625.455 0 485.442 0 312.727C0 140.013 140.013 0 312.727 0C429.352 0 531.067 63.84 584.83 158.48V158.48Z" fill="#2ECB4E"/>
<path d="M781.818 484.727C876.811 484.727 953.818 407.72 953.818 312.727C953.818 217.734 876.811 140.727 781.818 140.727C686.825 140.727 609.818 217.734 609.818 312.727C609.818 407.72 686.825 484.727 781.818 484.727Z" fill="#E2FFF9"/>
<path d="M759.927 406.545C811.741 406.545 853.745 364.541 853.745 312.727C853.745 260.913 811.741 218.909 759.927 218.909C708.113 218.909 666.109 260.913 666.109 312.727C666.109 364.541 708.113 406.545 759.927 406.545Z" fill="#8E51AE"/>
<path d="M312.727 547.272C442.263 547.272 547.272 442.263 547.272 312.727C547.272 183.191 442.263 78.182 312.727 78.182C183.191 78.182 78.182 183.191 78.182 312.727C78.182 442.263 183.191 547.272 312.727 547.272Z" fill="#E2FFF9"/>
<path d="M353.382 444.072C425.922 444.072 484.727 385.267 484.727 312.727C484.727 240.187 425.922 181.382 353.382 181.382C280.842 181.382 222.037 240.187 222.037 312.727C222.037 385.267 280.842 444.072 353.382 444.072Z" fill="#8E51AE"/>
<path d="M381.527 303.345C402.253 303.345 419.054 286.544 419.054 265.818C419.054 245.092 402.253 228.291 381.527 228.291C360.801 228.291 344 245.092 344 265.818C344 286.544 360.801 303.345 381.527 303.345Z" fill="white"/>
<path d="M741.164 306.473C754.981 306.473 766.182 295.272 766.182 281.455C766.182 267.638 754.981 256.437 741.164 256.437C727.347 256.437 716.146 267.638 716.146 281.455C716.146 295.272 727.347 306.473 741.164 306.473Z" fill="white"/>
</svg>
