<?xml version="1.0" encoding="utf-8"?>
<!-- Generator: Adobe Illustrator 17.1.0, SVG Export Plug-In . SVG Version: 6.00 Build 0)  -->
<!DOCTYPE svg PUBLIC "-//W3C//DTD SVG 1.1//EN" "http://www.w3.org/Graphics/SVG/1.1/DTD/svg11.dtd">
<svg version="1.1" id="Layer_1" xmlns:sketch="http://www.bohemiancoding.com/sketch/ns"
	 xmlns="http://www.w3.org/2000/svg" xmlns:xlink="http://www.w3.org/1999/xlink" x="0px" y="0px" viewBox="12.4 146.9 935.1 225.5"
	 enable-background="new 12.4 146.9 935.1 225.5" xml:space="preserve">
<path fill="#1895D2" d="M232.5,176c-8.5-14.5-20.3-23.5-35.2-26.8c-7-1.5-14.7-2.3-22.9-2.3c-42.8,0-104.6,22.2-146.2,71.8
	C15,234.3,10,250.2,13.3,265.8c5.4,25.9,31.7,43,40.8,48.2l-17.5,58.1l47-40c7.7-0.4,45.5-2.3,85.2-7.4
	c45.3-5.8,66.5-37.2,71.3-52.9C248.3,244.9,248.4,203.3,232.5,176z M232.1,269.4c-0.5,1.7-1.3,3.6-2.2,5.6
	c-3.1-6.1-10-14.5-24.1-14.5c-22,0-27.9,16.3-27.9,16.3s-10.9-32.5-43.2-30.4c-32.2,2.2-35.9,37.1-35.9,37.1S87.5,266,66.6,270.8
	c-16.3,3.7-22.1,18.6-23.9,25c-9-7.6-18.5-18.5-21.2-31.7c-2.7-13,1.7-26.5,13.1-40c39.9-47.5,99-68.8,139.8-68.8
	c7.6,0,14.7,0.7,21.1,2.1c12.5,2.8,22.5,10.5,29.7,22.9C239.9,205.4,239.8,244.2,232.1,269.4z M157.8,207.6
	c0,14.7-11.6,26.6-25.8,26.6c-14.3,0-25.8-11.9-25.8-26.6c0-14.7,11.6-26.6,25.8-26.6C146.2,180.9,157.8,192.9,157.8,207.6z
	 M88.5,243.2c0,9.1-7.2,16.6-16.1,16.6s-16.1-7.4-16.1-16.6s7.2-16.6,16.1-16.6S88.5,234,88.5,243.2z M219.8,232.1
	c0,11-8.6,19.9-19.3,19.9c-10.7,0-19.3-8.9-19.3-19.9c0-11,8.6-19.9,19.3-19.9C211.2,212.2,219.8,221.1,219.8,232.1z M933.5,316.1
	c-7.7,0-14-6.2-14-13.9c0-7.7,6.3-14,14-14c7.7,0,14,6.3,14,14C947.5,309.9,941.2,316.1,933.5,316.1z M933.5,290
	c-6.7,0-12.1,5.4-12.1,12.1c0,6.7,5.4,12.1,12.1,12.1s12.1-5.4,12.1-12.1C945.7,295.5,940.2,290,933.5,290z M939.1,311h-0.3
	c-0.3,0-0.6-0.2-0.7-0.4l-4.8-7.4h-0.1c-0.3,0-0.4,0-0.7,0c-0.4,0-1.2,0-1.8,0c-0.3,0-0.6,0-0.8,0v7c0,0.4-0.3,0.8-0.8,0.8h-0.2
	c-0.5,0-0.8-0.5-0.8-0.8v-16.4c0-0.4,0.3-0.8,0.7-0.8c0.8-0.1,2.7-0.1,3.7-0.1c4.3,0,6.7,1.3,6.7,5.1v0.1c0,2.9-1.3,4.3-3.9,4.9
	l4.4,6.8c0.1,0.2,0.2,0.4,0.2,0.6C939.9,310.7,939.7,311,939.1,311z M937.4,298c0-2.5-1.5-3.4-4.9-3.4c-0.8,0-1.8,0-2.6,0v6.8
	c0.8,0,2,0,2.6,0c3.6,0,4.9-0.8,4.9-3.4V298z M550,155.9c0-4.7,3.3-8.5,7.4-8.5s7.4,3.8,7.4,8.5v153.6c0,4.7-3.3,8.5-7.4,8.5
	s-7.4-3.8-7.4-8.5V155.9z M352.1,190.4c-18.9,0-35.4,9.5-42.6,25.1v-14.9h0c-0.3-4.3-3.5-7.8-7.4-7.8c-3.9,0-7.1,3.4-7.4,7.8h0
	v164.1h0c0.3,4.3,3.5,7.8,7.4,7.8c3.9,0,7-3.4,7.4-7.8h0v-72.3h0.5c6.4,17.4,24,26.6,42.1,26.6c36.9,0,54.6-29.9,54.6-64.2
	C406.7,220.3,389.1,190.4,352.1,190.4z M352.1,306.4c-31.5,0-42.6-26.6-42.6-51.8c0-27.5,9.9-51.8,42.6-51.8
	c28.2,0,39.8,26.6,39.8,51.8C391.9,279.9,380.4,306.4,352.1,306.4z M528.8,304.5L528.8,304.5c0,0-3.1,0-4.7,0
	c-5.9,0-8.7-4.9-8.7-10.5v-64.5c0-32.5-23.3-39.1-44.7-39.1c-17.6,0-46.9,4-48.3,32.4h-0.1c0,4.7,3.3,8.5,7.4,8.5
	c4,0,7.4-3.8,7.4-8.4h0.1c0.5-19.8,25.6-20.1,31.6-20.1c17.4,0,31.8,4.9,31.8,24.9c0,13.4-6.8,15.1-19.1,16.5
	c-32,3.8-65.2,4.9-65.2,39.1c0,24.5,18.4,35.5,40.7,35.5c23.3,0,33.9-8.9,44.2-24.7h0.5c0,12.7,2.4,22.5,17.4,22.5
	c4,0,6.3,0.2,9.6,0v0c3.8,0,7-2.8,7-6.1C535.8,307.2,532.6,304.5,528.8,304.5z M500.6,259.7c0.2,23.8-19.8,46.7-42.4,46.7
	c-13.9,0-27.1-9.2-27.1-24c0-23.8,31.3-20.6,56.5-25.1c4-0.7,10.6-1.9,12.5-5.4l0.5,1.1V259.7z M764,310.6c0-3.3-3.1-6.1-7-6.1v0
	c0,0-3.1,0-4.7,0c-5.9,0-8.7-4.9-8.7-10.5v-64.5c0-32.5-23.3-39.1-44.7-39.1c-17.6,0-46.9,4-48.3,32.4h-0.1c0,4.7,3.3,8.5,7.4,8.5
	c4,0,7.4-3.8,7.4-8.4h0.1c0.5-19.8,25.6-20.1,31.6-20.1c17.4,0,31.8,4.9,31.8,24.9c0,13.4-6.8,15.1-19.1,16.5
	c-32,3.8-65.2,4.9-65.2,39.1c0,24.5,18.4,35.5,40.7,35.5c23.3,0,33.9-8.9,44.2-24.7h0.5c0,12.7,2.4,22.5,17.4,22.5
	c4,0,6.3,0.2,9.6,0v0C760.8,316.7,764,313.9,764,310.6z M728.8,259.7c0.2,23.8-19.8,46.7-42.4,46.7c-13.9,0-27.1-9.2-27.1-24
	c0-23.8,31.3-20.6,56.5-25.1c4-0.7,10.6-1.9,12.5-5.4l0.5,1.1V259.7z M775.5,155.9c0-4.7,3.3-8.5,7.4-8.5c4.1,0,7.4,3.8,7.4,8.5
	v153.6c0,4.7-3.3,8.5-7.4,8.5c-4.1,0-7.4-3.8-7.4-8.5V155.9z M905.9,305.6l-48.4-65.4l40.4-35.7c3.6-3,4.3-8.1,1.6-11.2
	c-2.7-3.1-7.7-3.1-11.3-0.1l-66.3,58.3v-66.3c0-4.7-3.3-8.5-7.4-8.5c-4.1,0-7.4,3.8-7.4,8.5v6.3v111.8v6.3c0,4.7,3.3,8.5,7.4,8.5
	c4.1,0,7.4-3.8,7.4-8.5v-38.3l24.3-21.2l47.5,64.1c2.7,3.8,7.6,5,11,2.7C908.1,314.4,908.6,309.4,905.9,305.6z M635.4,200.2
	c0-3.4-3.2-6.2-7.2-6.2v0h-16v-21.7h0c0-4.7-3.3-8.5-7.4-8.5c-4.1,0-7.4,3.8-7.4,8.5h0V194h-13.8v0c-3.9,0-7.2,2.8-7.2,6.2
	c0,3.4,3.2,6.2,7.2,6.2v0h13.8v84.4c0,2.4,0,4.6,0.2,6.6h0c0.5,11.7,3.9,19.3,18.7,19.3c4.3,0,6.8,0.2,10.4,0v0c4.1,0,7.5-3,7.5-6.6
	c0-3.6-3.4-6.6-7.5-6.6v0c0,0-3.3,0-5.1,0c-4.3,0-7.1-1.8-8.4-4.8h0c-0.8-2.4-1-5.5-1-9.1v-83.2h16v0
	C632.2,206.5,635.4,203.7,635.4,200.2z"/>
</svg>
