<?xml version="1.0" encoding="utf-8"?>
<!-- Generator: Adobe Illustrator 19.1.0, SVG Export Plug-In . SVG Version: 6.00 Build 0)  -->
<svg version="1.1" id="Layer_1" xmlns="http://www.w3.org/2000/svg" xmlns:xlink="http://www.w3.org/1999/xlink" x="0px" y="0px"
	 viewBox="0 0 102 18" style="enable-background:new 0 0 102 18;" xml:space="preserve">
<style type="text/css">
	.st0{fill:#333333;}
</style>
<g>
	<path class="st0" d="M23.5,0.5c4.1,0,7.2,3.1,7.2,7s-3.1,7-7.2,7c-4.1,0-7.2-3.1-7.2-7S19.4,0.5,23.5,0.5z M23.5,11.2
		c2.1,0,3.6-1.6,3.6-3.7s-1.4-3.7-3.6-3.7s-3.6,1.7-3.6,3.7S21.3,11.2,23.5,11.2z"/>
	<path class="st0" d="M45.6,0.8v13.5h-3.5v-1.1c-1.1,0.9-2.3,1.4-3.6,1.4c-1.9,0-3.5-0.9-4.6-2.2c-0.9-1.1-1.4-2.4-1.4-4.5V0.8h3.6
		v7.3c0,1.2,0.3,1.8,0.7,2.3c0.6,0.6,1.3,0.8,2,0.8c1.5,0,2.6-1,3.1-1.7V0.8H45.6z"/>
	<path class="st0" d="M48.5,14.3V0.8H52v1.1c1-0.8,2.3-1.4,3.8-1.4c1.9,0,3.6,0.8,4.7,2.2c0.9,1.1,1.4,2.4,1.4,4.7v6.9h-3.6V7.1
		c0-1.3-0.3-2-0.8-2.5c-0.5-0.5-1.2-0.8-2-0.8c-1.5,0-2.8,1-3.3,1.7v8.8H48.5z"/>
	<path class="st0" d="M70.8,0.5c4.1,0,7.2,3.1,7.2,7s-3.1,7-7.2,7c-4.1,0-7.2-3.1-7.2-7S66.7,0.5,70.8,0.5z M70.8,11.2
		c2.1,0,3.6-1.6,3.6-3.7s-1.4-3.7-3.6-3.7s-3.6,1.7-3.6,3.7S68.7,11.2,70.8,11.2z"/>
	<path class="st0" d="M86,14.3h-2.5L77.8,0.8h3.6l3.3,7.9l3.4-7.9h2.5L94,8.7l3.3-7.9h3.6l-5.7,13.5h-2.5l-3.4-7.9L86,14.3z"/>
	<polygon class="st0" points="5.3,16.7 9.1,16.7 16.4,0.8 12.6,0.8 8.9,8.9 5,0.8 1,0.8 7,12.9 	"/>
</g>
</svg>
