<svg width="108" height="109" viewBox="0 0 108 109" fill="none" xmlns="http://www.w3.org/2000/svg">
<g filter="url(#filter0_d)">
<path fill-rule="evenodd" clip-rule="evenodd" d="M24.4549 31.689C24.7329 30.9513 24.8445 30.2706 25.1225 29.5329C31.0409 13.8274 51.2064 6.8776 70.1201 14.0253C89.0339 21.1731 99.5869 39.7317 93.6685 55.4372C93.3905 56.175 93.152 56.8077 92.7472 57.4975C92.4692 58.2353 92.3576 58.916 92.0796 59.6537C86.1612 75.3592 65.9957 82.309 47.082 75.1613C28.1683 68.0135 17.6152 49.4549 23.5336 33.7494C23.8116 33.0116 24.1769 32.4268 24.4549 31.689Z" fill="#18D9FF"/>
<path fill-rule="evenodd" clip-rule="evenodd" d="M70.2542 15.303C52.4768 8.58467 33.2029 15.6369 27.4231 30.9747C27.1807 31.6179 26.8977 32.3689 26.7794 33.0594L26.7391 33.1666L26.6986 33.274C26.4562 33.9173 26.049 34.6213 25.8065 35.2649C20.0267 50.6026 29.8428 68.6484 47.6201 75.3667C65.3974 82.0849 84.6713 75.0327 90.4511 59.6949C90.6936 59.0514 90.9766 58.3004 91.0948 57.6102L91.1353 57.5028L91.1757 57.3956C91.4182 56.7521 91.8254 56.048 92.0678 55.4048C97.8476 40.067 88.1557 22.0682 70.2542 15.303ZM46.8087 77.5084C27.6641 70.2734 17.0929 50.8395 23.3172 34.3222C23.6001 33.5715 23.8427 32.9276 24.2498 32.2239C24.5327 31.4732 24.651 30.7827 24.9339 30.032C31.1582 13.5146 51.9148 5.91957 71.0594 13.1546C90.2039 20.3896 100.775 39.8237 94.5507 56.3411C94.2678 57.0918 94.0253 57.7354 93.6182 58.4391C93.3353 59.1898 93.2169 59.8806 92.934 60.6313C86.7097 77.1487 66.0778 84.7905 46.8087 77.5084Z" fill="url(#paint0_linear)"/>
<path fill-rule="evenodd" clip-rule="evenodd" d="M70.2511 15.2998C87.7007 21.8943 97.5035 38.765 92.1462 52.9816C86.7889 67.1982 68.3002 73.3772 50.8506 66.7827C33.401 60.1883 23.5982 43.3176 28.9555 29.101C34.3128 14.8844 52.8015 8.7054 70.2511 15.2998Z" fill="white"/>
<path fill-rule="evenodd" clip-rule="evenodd" d="M47.7554 41.4032L52.9608 27.5897L70.196 34.1032L74.0044 23.9969C72.3053 23.0061 70.4838 22.128 68.5473 21.3962C54.3606 16.0349 39.6061 20.3245 35.5916 30.9776C32.7589 38.4949 36.0367 47.1686 43.1935 53.5092L46.3953 45.0124L47.7554 41.4032ZM78.7208 26.4331L75.5189 34.9301L74.7216 37.0457L68.9535 52.3525L51.7183 45.8391L47.9098 55.9456C49.609 56.9361 51.4305 57.8142 53.367 58.546C67.5537 63.9073 82.3082 59.6177 86.3227 48.9646C89.1553 41.4476 85.8775 32.7739 78.7208 26.4331ZM64.4173 46.0428L53.231 41.8153L56.3746 33.4731L67.5609 37.7005L64.4173 46.0428Z" fill="#24D2FD"/>
</g>
<defs>
<filter id="filter0_d" x="0.530762" y="6.41464" width="106.806" height="101.854" filterUnits="userSpaceOnUse" color-interpolation-filters="sRGB">
<feFlood flood-opacity="0" result="BackgroundImageFix"/>
<feColorMatrix in="SourceAlpha" type="matrix" values="0 0 0 0 0 0 0 0 0 0 0 0 0 0 0 0 0 0 127 0"/>
<feOffset dx="-5" dy="12"/>
<feGaussianBlur stdDeviation="8"/>
<feColorMatrix type="matrix" values="0 0 0 0 0.188235 0 0 0 0 0.411765 0 0 0 0 0.627451 0 0 0 0.3 0"/>
<feBlend mode="normal" in2="BackgroundImageFix" result="effect1_dropShadow"/>
<feBlend mode="normal" in="SourceGraphic" in2="effect1_dropShadow" result="shape"/>
</filter>
<linearGradient id="paint0_linear" x1="81.6171" y1="90.663" x2="105.929" y2="26.3321" gradientUnits="userSpaceOnUse">
<stop stop-color="#18D9FF"/>
<stop offset="1" stop-color="#00AFF0"/>
</linearGradient>
</defs>
</svg>
