<svg width="97" height="99" viewBox="0 0 97 99" fill="none" xmlns="http://www.w3.org/2000/svg">
<g filter="url(#filter0_d)">
<path fill-rule="evenodd" clip-rule="evenodd" d="M24.1998 52.93C23.9178 52.317 23.5706 51.8398 23.2885 51.2268C17.2852 38.1763 25.1726 21.6904 40.889 14.4401C56.6053 7.18968 74.2432 11.8999 80.2466 24.9504C80.5286 25.5634 80.7705 26.0892 80.9471 26.7509C81.2291 27.3639 81.5764 27.8411 81.8584 28.4541C87.8617 41.5046 79.9743 57.9904 64.258 65.2408C48.5417 72.4912 30.9037 67.7809 24.9003 54.7305C24.6183 54.1174 24.4818 53.543 24.1998 52.93Z" fill="#18D9FF"/>
<path fill-rule="evenodd" clip-rule="evenodd" d="M41.7439 15.126C26.9719 21.9407 19.6826 37.944 25.5454 50.6889C25.7912 51.2234 26.0783 51.8474 26.4275 52.3346L26.4685 52.4236L26.5095 52.5129C26.7554 53.0474 26.9393 53.7191 27.1853 54.2538C33.0481 66.9987 49.931 71.8506 64.703 65.0358C79.4751 58.221 86.7644 42.2178 80.9016 29.4729C80.6556 28.9381 80.3685 28.3141 80.0194 27.8272L79.9784 27.7379L79.9374 27.6489C79.6914 27.1141 79.5076 26.4425 79.2617 25.908C73.3989 13.1631 56.6191 8.26356 41.7439 15.126ZM65.5233 66.8181C49.6151 74.157 31.4335 68.9319 25.1198 55.2068C24.8328 54.583 24.5867 54.048 24.403 53.3766C24.116 52.7529 23.7668 52.2657 23.4799 51.6419C17.1662 37.9168 25.0161 20.6823 40.9242 13.3434C56.8324 6.00452 75.0141 11.2299 81.3278 24.955C81.6148 25.5788 81.8608 26.1135 82.0445 26.7849C82.3315 27.4087 82.6808 27.8961 82.9677 28.5199C89.2815 42.245 81.5349 59.4315 65.5233 66.8181Z" fill="url(#paint0_linear)"/>
<path fill-rule="evenodd" clip-rule="evenodd" d="M41.7441 15.126C56.2438 8.43682 72.4036 12.5908 77.8378 24.404C83.272 36.2172 75.923 51.2164 61.4233 57.9056C46.9236 64.5947 30.7638 60.4408 25.3296 48.6275C19.8953 36.8143 27.2444 21.8151 41.7441 15.126Z" fill="white"/>
<path fill-rule="evenodd" clip-rule="evenodd" d="M44.1132 44.5439L38.833 33.0656L53.1546 26.4586L49.2915 18.0608C47.6674 18.5027 46.0384 19.0869 44.4292 19.8293C32.6408 25.2676 26.3857 36.852 30.4578 45.7042C33.3312 51.9506 40.5805 55.1619 48.7406 54.6033L45.4927 47.5429L44.1132 44.5439ZM53.607 16.6459L56.8549 23.7065L57.6636 25.4645L63.5146 38.1836L49.193 44.7906L53.0562 53.1886C54.6802 52.7465 56.3092 52.1623 57.9184 51.42C69.7067 45.9816 75.9619 34.3972 71.8898 25.545C69.0164 19.2988 61.7671 16.0875 53.607 16.6459ZM56.9507 37.1609L47.6555 41.449L44.4667 34.5172L53.762 30.229L56.9507 37.1609Z" fill="#24D2FD"/>
</g>
<defs>
<filter id="filter0_d" x="0.276611" y="6.01917" width="95.8882" height="92.1232" filterUnits="userSpaceOnUse" color-interpolation-filters="sRGB">
<feFlood flood-opacity="0" result="BackgroundImageFix"/>
<feColorMatrix in="SourceAlpha" type="matrix" values="0 0 0 0 0 0 0 0 0 0 0 0 0 0 0 0 0 0 127 0"/>
<feOffset dx="-5" dy="12"/>
<feGaussianBlur stdDeviation="8"/>
<feColorMatrix type="matrix" values="0 0 0 0 0.188235 0 0 0 0 0.411765 0 0 0 0 0.627451 0 0 0 0.3 0"/>
<feBlend mode="normal" in2="BackgroundImageFix" result="effect1_dropShadow"/>
<feBlend mode="normal" in="SourceGraphic" in2="effect1_dropShadow" result="shape"/>
</filter>
<linearGradient id="paint0_linear" x1="94.4473" y1="53.4747" x2="69.7902" y2="0.0267189" gradientUnits="userSpaceOnUse">
<stop stop-color="#18D9FF"/>
<stop offset="1" stop-color="#00AFF0"/>
</linearGradient>
</defs>
</svg>
