<svg width="147" height="123" viewBox="0 0 147 123" fill="none" xmlns="http://www.w3.org/2000/svg">
<g filter="url(#filter0_d)">
<path fill-rule="evenodd" clip-rule="evenodd" d="M5.55236 56.5342C5.43712 55.6435 5.12328 54.9075 5.00804 54.0167C2.55476 35.0548 26.6022 16.2774 58.6681 12.1169C90.734 7.95641 118.766 19.9765 121.219 38.9385C121.335 39.8292 121.433 40.5931 121.334 41.5117C121.449 42.4025 121.763 43.1385 121.878 44.0292C124.331 62.9912 100.284 81.7685 68.2178 85.929C36.1519 90.0895 8.11994 78.0695 5.66667 59.1075C5.55143 58.2168 5.6676 57.4249 5.55236 56.5342Z" fill="#18D9FF"/>
<path fill-rule="evenodd" clip-rule="evenodd" d="M9.02702 51.9525C9.12984 52.7472 9.24987 53.675 9.5633 54.4427L9.5976 54.7078C9.70042 55.5025 9.60988 56.4576 9.71274 57.2526C12.1642 76.2009 38.8293 88.5045 68.9686 84.594C99.1079 80.6834 121.761 61.9808 119.31 43.0325C119.207 42.2375 119.087 41.3097 118.774 40.5423L118.739 40.2772C118.636 39.4822 118.727 38.5271 118.624 37.7324C116.173 18.7841 90.0303 8.86534 59.6804 12.8032C29.5411 16.7137 6.57551 33.0042 9.02702 51.9525ZM5.50906 57.8949C5.38154 56.9092 5.27216 56.0638 5.3552 55.0508C5.22768 54.0651 4.90778 53.2474 4.78026 52.2617C1.9743 30.5738 26.5561 11.8682 59.0134 7.65694C91.4707 3.44563 120.001 15.2599 122.807 36.9479C122.935 37.9336 123.044 38.7786 122.961 39.7916C123.088 40.7773 123.408 41.5953 123.536 42.581C126.342 64.269 102.293 85.432 69.6243 89.6707C37.1669 93.882 8.31501 79.5828 5.50906 57.8949Z" fill="url(#paint0_linear)"/>
<path fill-rule="evenodd" clip-rule="evenodd" d="M59.5129 11.5164C89.0966 7.678 114.784 17.7419 116.886 33.9946C118.989 50.2474 96.7114 66.5347 67.1277 70.3731C37.544 74.2116 11.8569 64.1477 9.75418 47.8949C7.65141 31.6421 29.9292 15.3549 59.5129 11.5164Z" fill="white"/>
<path fill-rule="evenodd" clip-rule="evenodd" d="M44.717 44.8201L42.8796 30.6184L72.0999 26.8271L70.7556 16.4369C67.6394 16.5222 64.4231 16.7659 61.14 17.1919C37.0881 20.3126 18.7395 31.7208 20.1565 42.6732C21.1564 50.4017 31.7372 55.8322 46.3273 57.2661L45.1971 48.5306L44.717 44.8201ZM79.1906 15.94L80.3208 24.6758L80.6023 26.8508L82.6383 42.5877L53.418 46.379L54.7624 56.7696C57.8786 56.684 61.0949 56.4403 64.378 56.0143C88.4298 52.8936 106.778 41.4854 105.361 30.533C104.362 22.8047 93.7808 17.3742 79.1906 15.94ZM71.848 39.7841L52.8829 42.2448L51.7733 33.6682L70.7383 31.2075L71.848 39.7841Z" fill="#24D2FD"/>
</g>
<defs>
<filter id="filter0_d" x="1.56201" y="6.81241" width="145.197" height="115.594" filterUnits="userSpaceOnUse" color-interpolation-filters="sRGB">
<feFlood flood-opacity="0" result="BackgroundImageFix"/>
<feColorMatrix in="SourceAlpha" type="matrix" values="0 0 0 0 0 0 0 0 0 0 0 0 0 0 0 0 0 0 127 0"/>
<feOffset dx="10" dy="19"/>
<feGaussianBlur stdDeviation="6.5"/>
<feColorMatrix type="matrix" values="0 0 0 0 0.188235 0 0 0 0 0.411765 0 0 0 0 0.627451 0 0 0 0.15 0"/>
<feBlend mode="normal" in2="BackgroundImageFix" result="effect1_dropShadow"/>
<feBlend mode="normal" in="SourceGraphic" in2="effect1_dropShadow" result="shape"/>
</filter>
<linearGradient id="paint0_linear" x1="128.638" y1="82.0138" x2="117.997" y2="0.00387917" gradientUnits="userSpaceOnUse">
<stop stop-color="#18D9FF"/>
<stop offset="1" stop-color="#00AFF0"/>
</linearGradient>
</defs>
</svg>
