<svg xmlns="http://www.w3.org/2000/svg" width="60" height="51" viewBox="0 0 60 51"><path fill="#00d4ff" fill-rule="evenodd" d="M13.864 50.328c-4.512 0-7.896-1.656-10.152-4.968C1.456 42.048.328 37.416.328 31.464c0-6.816 1.68-12.816 5.04-18C8.728 8.28 13.864 4.008 20.776.648l4.608 9.216c-4.32 2.208-7.56 4.728-9.72 7.56-2.16 2.832-3.24 6.408-3.24 10.728.288-.096.768-.144 1.44-.144 3.072 0 5.688.936 7.848 2.808 2.16 1.872 3.24 4.44 3.24 7.704 0 3.648-1.056 6.528-3.168 8.64-2.112 2.112-4.752 3.168-7.92 3.168zm33.984 0c-4.512 0-7.896-1.656-10.152-4.968-2.256-3.312-3.384-7.944-3.384-13.896 0-6.816 1.68-12.816 5.04-18C42.712 8.28 47.848 4.008 54.76.648l4.608 9.216c-4.32 2.208-7.56 4.728-9.72 7.56-2.16 2.832-3.24 6.408-3.24 10.728.288-.096.768-.144 1.44-.144 3.072 0 5.688.936 7.848 2.808 2.16 1.872 3.24 4.44 3.24 7.704 0 3.648-1.056 6.528-3.168 8.64-2.112 2.112-4.752 3.168-7.92 3.168z"/></svg>