<svg xmlns="http://www.w3.org/2000/svg" width="60" height="51" viewBox="0 0 60 51"><path fill="#00D4FF" fill-rule="evenodd" d="M45.832 50.328c4.512 0 7.896-1.656 10.152-4.968 2.256-3.312 3.384-7.944 3.384-13.896 0-6.816-1.68-12.816-5.04-18C50.968 8.28 45.832 4.008 38.92.648l-4.608 9.216c4.32 2.208 7.56 4.728 9.72 7.56 2.16 2.832 3.24 6.408 3.24 10.728-.288-.096-.768-.144-1.44-.144-3.072 0-5.688.936-7.848 2.808-2.16 1.872-3.24 4.44-3.24 7.704 0 3.648 1.056 6.528 3.168 8.64 2.112 2.112 4.752 3.168 7.92 3.168zm-33.984 0c4.512 0 7.896-1.656 10.152-4.968 2.256-3.312 3.384-7.944 3.384-13.896 0-6.816-1.68-12.816-5.04-18C16.984 8.28 11.848 4.008 4.936.648L.328 9.864c4.32 2.208 7.56 4.728 9.72 7.56 2.16 2.832 3.24 6.408 3.24 10.728-.288-.096-.768-.144-1.44-.144-3.072 0-5.688.936-7.848 2.808C1.84 32.688.76 35.256.76 38.52c0 3.648 1.056 6.528 3.168 8.64 2.112 2.112 4.752 3.168 7.92 3.168z"/></svg>