<svg xmlns="http://www.w3.org/2000/svg" width="181" height="29" viewBox="0 0 181 29"><path d="M40.621 19.101c-3.826 0-6.444-2.927-6.444-6.549 0-3.622 2.618-6.598 6.444-6.598 3.827 0 6.445 2.976 6.445 6.598s-2.618 6.55-6.445 6.55m0-19.102c-7.401 0-12.99 5.607-12.99 12.552 0 6.946 5.589 12.503 12.99 12.503 7.402 0 12.991-5.557 12.991-12.503C53.612 5.607 48.023 0 40.622 0m33.361 16.22c-.907 1.141-2.92 2.976-5.688 2.976-1.26 0-2.67-.397-3.676-1.487-.757-.845-1.21-1.936-1.21-4.12V.592h-6.546v12.75c0 3.572.907 6.053 2.468 7.938 1.913 2.332 4.935 3.87 8.308 3.87 2.367 0 4.683-.744 6.596-2.432v1.936h6.294V.592h-6.546v15.627zM99.086 0c-2.718 0-5.035.943-6.897 2.432V.496h-6.294v24.062h6.546V8.93c.907-1.24 3.17-2.976 5.942-2.976 1.509 0 2.818.496 3.674 1.339.907.894 1.461 2.133 1.461 4.516v12.749h6.546V12.304c0-4.117-.907-6.549-2.519-8.434-2.014-2.38-5.084-3.87-8.46-3.87m27.231 19.101c-3.826 0-6.445-2.927-6.445-6.549 0-3.622 2.619-6.598 6.445-6.598 3.827 0 6.445 2.976 6.445 6.598s-2.618 6.55-6.445 6.55m0-19.102c-7.401 0-12.99 5.607-12.99 12.552 0 6.946 5.589 12.503 12.99 12.503 7.402 0 12.991-5.557 12.991-12.503 0-6.945-5.59-12.552-12.99-12.552m47.933.592l-5.991 14.04-6.094-14.04h-4.53l-6.144 14.04-5.942-14.04h-6.595l10.271 24.062h4.532l6.142-13.99 6.144 13.99h4.531L180.846.592zm-153.303 0L14.35 15.028 7.201.592H0l10.927 21.63-3.155 6.705h6.824L27.846.592z" fill-rule="evenodd"/></svg>