<svg width="46" height="45" viewBox="0 0 46 45" fill="none" xmlns="http://www.w3.org/2000/svg">
<path fill-rule="evenodd" clip-rule="evenodd" d="M4.36364 11C5.16364 11 5.81818 11.6545 5.81818 12.4545V18.2727H7.27273C8.07273 18.2727 8.72727 18.9273 8.72727 19.7273V27H0V19.7273C0 18.9273 0.654545 18.2727 1.45455 18.2727H2.90909V12.4545C2.90909 11.6545 3.56364 11 4.36364 11ZM14.5455 36.92C12.8582 36.3091 11.6364 34.7091 11.6364 32.8182V29.9091H20.3636V32.8182C20.3636 34.7236 19.1418 36.3236 17.4545 36.92V41.5455C17.4545 42.3455 16.8 43 16 43C15.2 43 14.5455 42.3455 14.5455 41.5455V36.92ZM0 32.8182C0 34.7091 1.22182 36.3091 2.90909 36.92V41.5455C2.90909 42.3455 3.56364 43 4.36364 43C5.16364 43 5.81818 42.3455 5.81818 41.5455V36.92C7.50545 36.3091 8.72727 34.7091 8.72727 32.8182V29.9091H0V32.8182ZM29.0909 12.4545V18.2727H30.5455C31.3455 18.2727 32 18.9273 32 19.7273V27H23.2727V19.7273C23.2727 18.9273 23.9273 18.2727 24.7273 18.2727H26.1818V12.4545C26.1818 11.6545 26.8364 11 27.6364 11C28.4364 11 29.0909 11.6545 29.0909 12.4545ZM17.4545 12.4545C17.4545 11.6545 16.8 11 16 11C15.2 11 14.5455 11.6545 14.5455 12.4545V18.2727H13.0909C12.2909 18.2727 11.6364 18.9273 11.6364 19.7273V27H20.3636V19.7273C20.3636 18.9273 19.7091 18.2727 18.9091 18.2727H17.4545V12.4545ZM26.1818 36.92C24.4945 36.3091 23.2727 34.7091 23.2727 32.8182V29.9091H32V32.8182C32 34.7236 30.7782 36.3236 29.0909 36.92V41.5455C29.0909 42.3455 28.4364 43 27.6364 43C26.8364 43 26.1818 42.3455 26.1818 41.5455V36.92Z" fill="#DDE6F2"/>
</svg>
