<svg width="46" height="46" viewBox="0 0 46 46" fill="none" xmlns="http://www.w3.org/2000/svg">
<path fill-rule="evenodd" clip-rule="evenodd" d="M0 30.98C0 22.7095 6.70948 16 14.98 16C23.2505 16 29.96 22.7095 29.96 30.98C29.96 39.2505 23.2505 45.96 14.98 45.96C6.70948 45.96 0 39.2505 0 30.98ZM14.1995 33.5917V39.8059C14.1995 40.6014 15.2652 40.8566 15.6254 40.1361L20.969 29.449C21.2092 28.9536 20.8489 28.3683 20.2935 28.3683H16.481V22.0791C16.481 21.2835 15.4153 21.0284 15.0701 21.7338L9.54637 32.496C9.27619 32.9913 9.65144 33.5917 10.2068 33.5917H14.1995Z" fill="#DDE6F2"/>
</svg>
