<svg xmlns="http://www.w3.org/2000/svg" width="24" height="24" fill="none" viewBox="0 0 24 24">
    <path fill="#DDE6F2" fill-rule="evenodd" d="M2 12C2 6.48 6.48 2 12 2s10 4.48 10 10-4.48 10-10 10S2 17.52 2 12zm3.5 3a2.5 2.5 0 0 0 5 0 2.5 2.5 0 0 0-5 0zm4-7a2.5 2.5 0 0 1 5 0 2.5 2.5 0 0 1-5 0zm4 7a2.5 2.5 0 0 0 5 0 2.5 2.5 0 0 0-5 0z" clip-rule="evenodd"/>
    <mask id="a" width="20" height="20" x="2" y="2" maskUnits="userSpaceOnUse">
        <path fill="#fff" fill-rule="evenodd" d="M2 12C2 6.48 6.48 2 12 2s10 4.48 10 10-4.48 10-10 10S2 17.52 2 12zm3.5 3a2.5 2.5 0 0 0 5 0 2.5 2.5 0 0 0-5 0zm4-7a2.5 2.5 0 0 1 5 0 2.5 2.5 0 0 1-5 0zm4 7a2.5 2.5 0 0 0 5 0 2.5 2.5 0 0 0-5 0z" clip-rule="evenodd"/>
    </mask>
</svg>
