<svg width="46" height="46" viewBox="0 0 46 46" fill="none" xmlns="http://www.w3.org/2000/svg">
<path fill-rule="evenodd" clip-rule="evenodd" d="M0 31C0 22.72 6.705 16 14.985 16C23.28 16 30 22.72 30 31C30 39.28 23.28 46 14.985 46C6.705 46 0 39.28 0 31ZM20.955 25H25.38C23.94 22.525 21.645 20.605 18.885 19.66C19.785 21.325 20.475 23.125 20.955 25ZM15 19.06C16.245 20.86 17.22 22.855 17.865 25H12.135C12.78 22.855 13.755 20.86 15 19.06ZM3 31C3 32.035 3.15 33.04 3.39 34H8.46C8.34 33.01 8.25 32.02 8.25 31C8.25 29.98 8.34 28.99 8.46 28H3.39C3.15 28.96 3 29.965 3 31ZM4.62 37H9.045C9.525 38.875 10.215 40.675 11.115 42.34C8.355 41.395 6.06 39.49 4.62 37ZM4.62 25H9.045C9.525 23.125 10.215 21.325 11.115 19.66C8.355 20.605 6.06 22.51 4.62 25ZM15 42.94C13.755 41.14 12.78 39.145 12.135 37H17.865C17.22 39.145 16.245 41.14 15 42.94ZM11.25 31C11.25 32.02 11.355 33.01 11.49 34H18.51C18.645 33.01 18.75 32.02 18.75 31C18.75 29.98 18.645 28.975 18.51 28H11.49C11.355 28.975 11.25 29.98 11.25 31ZM18.885 42.34C19.785 40.675 20.475 38.875 20.955 37H25.38C23.94 39.475 21.645 41.395 18.885 42.34ZM21.75 31C21.75 32.02 21.66 33.01 21.54 34H26.61C26.85 33.04 27 32.035 27 31C27 29.965 26.85 28.96 26.61 28H21.54C21.66 28.99 21.75 29.98 21.75 31Z" fill="#DDE6F2"/>
</svg>
