<svg width="46" height="46" viewBox="0 0 46 46" fill="none" xmlns="http://www.w3.org/2000/svg">
<path d="M30.4191 12.1263C29.1479 12.1263 28.1218 13.1524 28.1218 14.4236V22.0814C28.1218 22.5103 27.7848 22.8472 27.356 22.8472C26.9272 22.8472 26.5902 22.5103 26.5902 22.0814V9.82892C26.5902 8.55772 25.5641 7.53157 24.2929 7.53157C23.0217 7.53157 21.9955 8.55772 21.9955 9.82892V22.0814C21.9955 22.5103 21.6586 22.8472 21.2297 22.8472C20.8009 22.8472 20.4639 22.5103 20.4639 22.0814V8.29735C20.4639 7.02615 19.4378 6 18.1666 6C16.8954 6 15.8692 7.02615 15.8692 8.29735V22.0661C15.8692 22.495 15.5323 22.8319 15.1035 22.8319C14.6746 22.8319 14.3377 22.495 14.3377 22.0661V12.892C14.3377 11.6208 13.3115 10.5947 12.0403 10.5947C10.7691 10.5947 9.74298 11.6208 9.74298 12.892V30.3672L3.43293 26.768C2.54462 26.2626 1.44189 26.4005 0.706737 27.105C-0.212203 27.9933 -0.242835 29.4636 0.66079 30.3672L11.0448 40.9197C12.1935 42.099 13.7557 42.7576 15.4098 42.7576H26.5902C29.975 42.7576 32.7165 40.0161 32.7165 36.6313V14.4236C32.7165 13.1524 31.6903 12.1263 30.4191 12.1263Z" fill="#DDE6F2"/>
<path fill-rule="evenodd" clip-rule="evenodd" d="M26.4462 45.302C21.1829 45.302 16.9009 41.0055 16.9009 35.725C16.9009 30.4435 21.1829 26.147 26.4462 26.147C31.7095 26.147 35.9915 30.4435 35.9915 35.725C35.9915 41.0055 31.7095 45.302 26.4462 45.302" fill="white"/>
<path fill-rule="evenodd" clip-rule="evenodd" d="M26.4465 25.46C20.8056 25.46 16.2163 30.0648 16.2163 35.7247C16.2163 41.3846 20.8056 45.9894 26.4465 45.9894C32.0874 45.9894 36.6768 41.3846 36.6768 35.7247C36.6768 30.0648 32.0874 25.46 26.4465 25.46M26.4468 26.8343C31.3402 26.8343 35.3072 30.8147 35.3072 35.7246C35.3072 40.6345 31.3402 44.6149 26.4468 44.6149C21.5533 44.6149 17.5864 40.6345 17.5864 35.7246C17.5864 30.8147 21.5533 26.8343 26.4468 26.8343" fill="#DDE6F2"/>
<path fill-rule="evenodd" clip-rule="evenodd" d="M23.246 37.6057V32.513H28.002V28.7864C27.5015 28.6737 26.9814 28.6123 26.4472 28.6123C22.5323 28.6123 19.3589 31.7964 19.3589 35.725C19.3589 38.4963 20.9401 40.8961 23.246 42.0694V38.9366V37.6057Z" fill="#00D1FF"/>
<path fill-rule="evenodd" clip-rule="evenodd" d="M29.6476 29.3796V32.5129V33.2927V38.9365H24.8916V42.6631C25.392 42.7753 25.9121 42.8367 26.4463 42.8367C30.3613 42.8367 33.5347 39.6526 33.5347 35.7249C33.5347 32.9527 31.9535 30.5534 29.6476 29.3796" fill="#00D1FF"/>
<path fill-rule="evenodd" clip-rule="evenodd" d="M24.8916 37.2843H28.0015V34.1643H24.8916V37.2843Z" fill="#00D1FF"/>
</svg>
