<svg xmlns="http://www.w3.org/2000/svg" width="24" height="24" fill="none" viewBox="0 0 24 24">
    <path fill="#DDE6F2" fill-rule="evenodd" d="M19 6c.83 0 1.5.67 1.5 1.5v13c0 .83-.67 1.5-1.5 1.5s-1.5-.67-1.5-1.5v-13c0-.83.67-1.5 1.5-1.5zM7 16c.83 0 1.5.67 1.5 1.5v3c0 .83-.67 1.5-1.5 1.5s-1.5-.67-1.5-1.5v-3c0-.83.67-1.5 1.5-1.5zm7.5-3.5c0-.83-.67-1.5-1.5-1.5s-1.5.67-1.5 1.5v8c0 .83.67 1.5 1.5 1.5s1.5-.67 1.5-1.5v-8zM13.007 6.874l-.761-.6a7.351 7.351 0 0 0-.032-.026c-.25.265-.527.56-.787.84-.411.437-.782.833-.945 1-.65.67-1.246 1.24-1.828 1.741-3.113 2.672-4.5 2.137-6.5 0-.307-.328 0-.863 0-.863s.21-.208.5 0C4.05 9.971 4.961 9.99 7.072 8.177c.52-.446 1.065-.969 1.67-1.59.129-.134.44-.466.807-.857l.854-.909-.752-.593c-.816-.643-.389-1.891.666-1.97l3.085-.254c.657-.054 1.235.402 1.292 1.02l.278 2.89c.093.998-1.15 1.603-1.966.96z" clip-rule="evenodd"/>
</svg>
